<svg width="24" height="24" viewBox="0 0 24 24" fill="none" xmlns="http://www.w3.org/2000/svg">
<path d="M3.75 1.5C3.55109 1.5 3.36032 1.57902 3.21967 1.71967C3.07902 1.86032 3 2.05109 3 2.25V7.5H2.25C1.65326 7.5 1.08097 7.73705 0.65901 8.15901C0.237053 8.58097 3.09355e-07 9.15326 3.09355e-07 9.75V20.25C-0.00024372 20.7155 0.143892 21.1696 0.412542 21.5497C0.681193 21.9299 1.06113 22.2173 1.5 22.3725V22.875C1.5 23.1734 1.61853 23.4595 1.82951 23.6705C2.04048 23.8815 2.32663 24 2.625 24C2.92337 24 3.20952 23.8815 3.4205 23.6705C3.63147 23.4595 3.75 23.1734 3.75 22.875V22.5H6V21H2.25C2.05109 21 1.86032 20.921 1.71967 20.7803C1.57902 20.6397 1.5 20.4489 1.5 20.25V9.75C1.5 9.55109 1.57902 9.36032 1.71967 9.21967C1.86032 9.07902 2.05109 9 2.25 9H9.75C9.94891 9 10.1397 9.07902 10.2803 9.21967C10.421 9.36032 10.5 9.55109 10.5 9.75V10.5H12V9.75C12 9.15326 11.7629 8.58097 11.341 8.15901C10.919 7.73705 10.3467 7.5 9.75 7.5H9V2.25C9 2.05109 8.92098 1.86032 8.78033 1.71967C8.63968 1.57902 8.44891 1.5 8.25 1.5H3.75ZM7.5 7.5H4.5V3H7.5V7.5Z" fill="#D8D7D3"/>
<path d="M4.5 11.25C4.5 11.0511 4.42098 10.8603 4.28033 10.7197C4.13968 10.579 3.94891 10.5 3.75 10.5C3.55109 10.5 3.36032 10.579 3.21967 10.7197C3.07902 10.8603 3 11.0511 3 11.25V18.75C3 18.9489 3.07902 19.1397 3.21967 19.2803C3.36032 19.421 3.55109 19.5 3.75 19.5C3.94891 19.5 4.13968 19.421 4.28033 19.2803C4.42098 19.1397 4.5 18.9489 4.5 18.75V11.25ZM16.5 9C17.0967 9 17.669 9.23705 18.091 9.65901C18.5129 10.081 18.75 10.6533 18.75 11.25V12H21.75C22.3467 12 22.919 12.2371 23.341 12.659C23.7629 13.081 24 13.6533 24 14.25V21.75C24 22.3467 23.7629 22.919 23.341 23.341C22.919 23.7629 22.3467 24 21.75 24H9.75C9.15326 24 8.58097 23.7629 8.15901 23.341C7.73705 22.919 7.5 22.3467 7.5 21.75V14.25C7.5 13.6533 7.73705 13.081 8.15901 12.659C8.58097 12.2371 9.15326 12 9.75 12H12.75V11.25C12.75 10.6533 12.9871 10.081 13.409 9.65901C13.831 9.23705 14.4033 9 15 9H16.5ZM14.25 11.25V12H17.25V11.25C17.25 11.0511 17.171 10.8603 17.0303 10.7197C16.8897 10.579 16.6989 10.5 16.5 10.5H15C14.8011 10.5 14.6103 10.579 14.4697 10.7197C14.329 10.8603 14.25 11.0511 14.25 11.25ZM9 14.25V21.75C9 21.9489 9.07902 22.1397 9.21967 22.2803C9.36032 22.421 9.55109 22.5 9.75 22.5H10.5V13.5H9.75C9.55109 13.5 9.36032 13.579 9.21967 13.7197C9.07902 13.8603 9 14.0511 9 14.25ZM19.5 22.5V13.5H12V22.5H19.5ZM21.75 22.5C21.9489 22.5 22.1397 22.421 22.2803 22.2803C22.421 22.1397 22.5 21.9489 22.5 21.75V14.25C22.5 14.0511 22.421 13.8603 22.2803 13.7197C22.1397 13.579 21.9489 13.5 21.75 13.5H21V22.5H21.75Z" fill="#D8D7D3"/>
</svg>
