<svg width="32" height="32" viewBox="0 0 32 32" fill="none" xmlns="http://www.w3.org/2000/svg">
<rect width="32" height="32" fill="#4B514D"/>
<path d="M8.71182 12.6772C8.38846 12.5049 8.01474 12.3843 7.58934 12.3035C7.16526 12.2226 6.70937 12.1921 6.22433 12.1921H3.00928V12.2929C3.17096 12.3432 3.29288 12.3936 3.383 12.4651C3.47444 12.5354 3.54468 12.6679 3.58576 12.8799C3.63612 13.0827 3.656 13.3955 3.6666 13.7904C3.6772 14.1853 3.6772 14.73 3.6772 15.4085V17.4998C3.6772 18.1876 3.6666 18.723 3.65732 19.1179C3.64672 19.5128 3.62684 19.8256 3.57648 20.0283C3.52612 20.2311 3.46516 20.3716 3.37372 20.4431C3.28228 20.5134 3.16168 20.5651 3 20.6154H3.0106V20.7267H5.34569V20.6141C5.17341 20.5637 5.04221 20.5134 4.95077 20.4418C4.85932 20.3716 4.78909 20.239 4.748 20.027C4.69764 19.8242 4.66716 19.5221 4.65656 19.1272C4.64596 18.7322 4.63668 18.1876 4.63668 17.509V16.8014H6.28397C6.74913 16.8014 7.19441 16.751 7.61849 16.6596C8.04257 16.5681 8.40701 16.417 8.7211 16.2143C9.04446 16.0115 9.28698 15.7597 9.46986 15.4456C9.65142 15.1421 9.74287 14.7883 9.74287 14.3735C9.74287 13.9587 9.65142 13.6247 9.46986 13.3425C9.2777 13.0814 9.02458 12.8495 8.71182 12.6772ZM8.55014 15.5689C8.39906 15.8525 8.2069 16.0844 7.96438 16.2461C7.72186 16.4078 7.44886 16.5191 7.14538 16.58C6.8419 16.641 6.52914 16.6715 6.20578 16.6715H4.59692L4.60753 12.3141H6.19517C6.49866 12.3141 6.81141 12.3339 7.1149 12.3843C7.41838 12.4347 7.70066 12.5261 7.9339 12.6679C8.17642 12.819 8.36858 13.0323 8.53026 13.3146C8.69194 13.5982 8.77278 13.9918 8.77278 14.4769C8.78206 14.9115 8.70122 15.276 8.55014 15.5689Z" fill="#D8D7D3"/>
<path d="M28.8397 19.2279C28.7588 19.5314 28.6674 19.7845 28.5667 19.966C28.4659 20.1476 28.3347 20.2894 28.1929 20.3809C28.0419 20.4723 27.8696 20.5319 27.6774 20.5531C27.4852 20.573 27.2626 20.5836 27.0201 20.5836H23.7441V16.034H25.0494C25.3026 16.034 25.4947 16.0539 25.6352 16.1149C25.7757 16.1758 25.8777 16.2368 25.9387 16.3176C26.0089 16.3985 26.05 16.4899 26.0805 16.5906C26.1004 16.6914 26.1308 16.7934 26.1507 16.8941H26.2925V15.0335H26.1308C26.111 15.1342 26.0805 15.2362 26.0606 15.337C26.0407 15.4377 25.9904 15.5291 25.9188 15.61C25.8486 15.6908 25.7465 15.761 25.6153 15.8127C25.4735 15.8737 25.2814 15.8936 25.0296 15.8936H23.7242V12.3035H26.7776C27.0201 12.3035 27.2228 12.3233 27.4044 12.3644C27.586 12.3949 27.7476 12.4651 27.8802 12.5566C28.022 12.648 28.1426 12.7686 28.2539 12.9303C28.3652 13.092 28.4659 13.2947 28.5574 13.5465H28.7084L28.5362 12.4651C28.5163 12.3233 28.4752 12.2531 28.4447 12.2226C28.4142 12.2027 28.3533 12.1921 28.283 12.1921H22.0955V12.2929C22.2571 12.3432 22.3791 12.3936 22.4692 12.4744C22.5606 12.5553 22.6309 12.6865 22.6719 12.8985C22.7223 13.1013 22.7422 13.4034 22.7528 13.7983C22.7634 14.1933 22.7634 14.7379 22.7634 15.4165V17.509C22.7634 18.1968 22.7528 18.7322 22.7435 19.1272C22.7329 19.5221 22.713 19.8348 22.6627 20.0376C22.6123 20.2404 22.5513 20.3809 22.4599 20.4524C22.3685 20.5227 22.2479 20.5743 22.0862 20.6247L22.1365 20.6141V20.7254H28.6064C28.6872 20.7254 28.7482 20.7148 28.7787 20.6949C28.8092 20.6751 28.8397 20.5942 28.8489 20.463L29 19.2292L28.8397 19.2279Z" fill="#D8D7D3"/>
<path d="M20.9439 15.0839H16.1213L15.3726 15.9333H17.1312C18.1012 16.1056 19.3761 16.6821 19.3549 18.4407C19.3549 18.4407 19.4768 20.695 18.1927 20.695C18.1927 20.695 17.4042 20.7957 16.878 19.876C16.3519 18.9562 14.0778 14.6492 14.0778 14.6492C14.0778 14.6492 13.6935 13.6579 14.2805 12.7885C14.8663 11.9086 16.0299 12.1723 16.3334 12.3432C16.6368 12.5155 17.2531 13.2325 16.4553 14.3351L16.6064 14.4053L17.8905 12.8892C17.8905 12.8892 17.1126 12 15.5051 12C13.8975 12 13.0587 13.0721 13.0587 14.2542C13.0587 14.2542 13.0282 14.7698 13.443 15.447C13.5437 15.6087 13.6458 15.8008 13.7557 16.0036C13.5941 15.9625 13.3913 15.9333 13.17 15.9333C12.5935 15.9333 10.5712 16.3481 10.652 18.6223C10.7329 20.907 12.8453 20.968 13.2203 20.968C13.6047 20.968 14.201 20.8765 14.5138 20.6247L14.3415 20.524C14.3415 20.524 14.0075 20.6963 13.4721 20.6963C12.734 20.6963 11.5611 19.6454 11.4299 18.3413C11.2987 17.0373 11.9455 16.1069 13.0573 16.1069C13.4615 16.1069 13.8763 16.4913 14.2408 16.9763C14.3415 17.1791 14.4025 17.3195 14.4025 17.3195L15.8483 19.9382C15.8483 19.9382 16.3029 20.899 17.6785 20.899C19.0541 20.899 20.378 20.0403 20.378 18.8462C20.378 17.7238 19.832 16.7431 17.7394 15.9347H20.1859L20.9439 15.0839Z" fill="#D8D7D3"/>
</svg>
