<svg width="24" height="24" viewBox="0 0 24 24" fill="none" xmlns="http://www.w3.org/2000/svg">
<path d="M5.617 4.22321C5.61669 4.81255 5.37318 5.37763 4.94004 5.79415C4.5069 6.21066 3.9196 6.44449 3.30735 6.4442C2.69509 6.4439 2.10804 6.20951 1.67533 5.79257C1.24262 5.37564 0.999694 4.81033 1 4.22099C1.00031 3.63165 1.24382 3.06657 1.67696 2.65005C2.1101 2.23354 2.6974 1.99971 3.30965 2C3.92191 2.00029 4.50896 2.23469 4.94167 2.65162C5.37438 3.06856 5.61731 3.63387 5.617 4.22321ZM5.68625 8.08966H1.06926V22H5.68625V8.08966ZM12.9811 8.08966H8.3872V22H12.9349V14.7004C12.9349 10.634 18.4407 10.2562 18.4407 14.7004V22H23V13.1894C23 6.3342 14.851 6.58975 12.9349 9.95623L12.9811 8.08966Z" fill="#4B514D"/>
</svg>
