<svg width="26" height="26" viewBox="0 0 26 26" fill="none" xmlns="http://www.w3.org/2000/svg">
<path d="M13.0003 18.3337C14.4148 18.3337 15.7714 17.7718 16.7716 16.7716C17.7718 15.7714 18.3337 14.4148 18.3337 13.0003C18.3337 11.5858 17.7718 10.2293 16.7716 9.22909C15.7714 8.2289 14.4148 7.66699 13.0003 7.66699C11.5858 7.66699 10.2293 8.2289 9.22909 9.22909C8.2289 10.2293 7.66699 11.5858 7.66699 13.0003C7.66699 14.4148 8.2289 15.7714 9.22909 16.7716C10.2293 17.7718 11.5858 18.3337 13.0003 18.3337Z" stroke="#4B514D" stroke-width="2" stroke-linecap="round" stroke-linejoin="round"/>
<path d="M1 18.3333V7.66667C1 5.89856 1.70238 4.20286 2.95262 2.95262C4.20286 1.70238 5.89856 1 7.66667 1H18.3333C20.1014 1 21.7971 1.70238 23.0474 2.95262C24.2976 4.20286 25 5.89856 25 7.66667V18.3333C25 20.1014 24.2976 21.7971 23.0474 23.0474C21.7971 24.2976 20.1014 25 18.3333 25H7.66667C5.89856 25 4.20286 24.2976 2.95262 23.0474C1.70238 21.7971 1 20.1014 1 18.3333Z" stroke="#4B514D" stroke-width="2"/>
<path d="M20.334 5.67971L20.3473 5.66504" stroke="#4B514D" stroke-width="2" stroke-linecap="round" stroke-linejoin="round"/>
</svg>
