<svg width="24" height="24" viewBox="0 0 24 24" fill="none" xmlns="http://www.w3.org/2000/svg">
<path d="M7.39925 5.125C8.03312 5.125 8.61887 5.17313 9.1565 5.3175C9.69275 5.41375 10.1341 5.6145 10.526 5.85512C10.9179 6.09575 11.2094 6.44087 11.4074 6.88225C11.5999 7.32225 11.7044 7.85987 11.7044 8.44562C11.7044 9.12762 11.5586 9.71338 11.2149 10.1534C10.9192 10.5934 10.4366 10.9866 9.844 11.2767C10.6772 11.5187 11.3111 11.9587 11.6975 12.5445C12.0839 13.1302 12.3314 13.8604 12.3314 14.6936C12.3314 15.3756 12.187 15.9614 11.9395 16.4509C11.6935 16.9442 11.3228 17.3646 10.8642 17.6705C10.4242 17.9661 9.88662 18.2067 9.30087 18.3525C8.72716 18.5044 8.13704 18.5857 7.54362 18.5945L1 18.6041V5.125H7.39925ZM7.00737 10.5948C7.54362 10.5948 7.98362 10.4504 8.32325 10.2029C8.6615 9.95537 8.81137 9.5195 8.81137 8.98325C8.81137 8.68625 8.76325 8.3975 8.667 8.20362C8.56194 8.00774 8.41096 7.84025 8.227 7.7155C8.02782 7.60612 7.81452 7.52469 7.59312 7.4735C7.35112 7.42538 7.10362 7.42537 6.8135 7.42537H3.98375V10.6016C3.98375 10.5947 7.00737 10.5948 7.00737 10.5948ZM7.15175 16.3601C7.44737 16.3601 7.7375 16.312 7.985 16.2639C8.227 16.2157 8.4745 16.1181 8.667 15.9669C8.8595 15.8156 9.01075 15.6712 9.1565 15.4306C9.25275 15.1886 9.349 14.893 9.349 14.5493C9.349 13.8673 9.1565 13.3777 8.76325 13.034C8.37137 12.7384 7.83375 12.594 7.19987 12.594H3.98375V16.3533H7.15312L7.15175 16.3601ZM16.5815 16.312C16.9738 16.7034 17.5596 16.8987 18.3387 16.8978C18.875 16.8978 19.3645 16.752 19.7577 16.5045C20.1482 16.2112 20.3912 15.9178 20.4865 15.6245H22.879C22.4857 16.7946 21.9 17.6279 21.1217 18.1655C20.3435 18.6536 19.4126 18.9438 18.2892 18.9438C17.5708 18.9481 16.8581 18.8151 16.1896 18.5519C15.587 18.3295 15.0495 17.9599 14.6262 17.4766C14.1736 17.0271 13.8376 16.474 13.6472 15.8651C13.4066 15.2312 13.3035 14.5492 13.3035 13.7641C13.3035 13.034 13.3997 12.3451 13.6472 11.7112C13.8947 11.0787 14.233 10.5398 14.6744 10.0516C15.1144 9.61163 15.652 9.21838 16.2377 8.97638C16.8907 8.71574 17.5876 8.58272 18.2906 8.5845C19.1239 8.5845 19.854 8.72887 20.4879 9.07262C21.1204 9.41637 21.6112 9.80412 22.0031 10.3899C22.395 10.9261 22.6851 11.56 22.8845 12.2434C22.9807 12.9254 23.0289 13.6129 22.9807 14.3925H15.8995C15.8995 15.19 16.1882 15.9187 16.5815 16.312ZM19.6615 11.1805C19.3177 10.8367 18.7787 10.6429 18.1449 10.6429C17.7049 10.6429 17.3666 10.7391 17.071 10.8849C16.7754 11.0306 16.5815 11.2286 16.389 11.4211C16.2095 11.61 16.0899 11.8478 16.0452 12.1045C15.9957 12.3451 15.949 12.5445 15.949 12.737H20.3435C20.2472 12.0138 20.0011 11.5242 19.6615 11.1805ZM15.3619 6.0545H20.8316V7.37037H15.3619V6.0545Z" fill="#4B514D"/>
</svg>
