<svg width="24" height="24" viewBox="0 0 24 24" fill="none" xmlns="http://www.w3.org/2000/svg">
<path d="M11.998 2C9.14805 2 7.30105 4.019 5.11605 4.755C4.22805 5.055 3.78305 5.204 3.60405 5.415C3.42405 5.625 3.37105 5.934 3.26605 6.55C2.13905 13.146 4.60205 19.244 10.475 21.618C11.106 21.873 11.422 22 12.001 22C12.58 22 12.897 21.872 13.528 21.617C19.401 19.244 21.861 13.146 20.734 6.55C20.628 5.934 20.576 5.625 20.396 5.414C20.216 5.203 19.772 5.054 18.884 4.755C16.698 4.019 14.848 2 11.998 2Z" stroke="#D8D7D3" stroke-width="1.5" stroke-linecap="round" stroke-linejoin="round"/>
<path d="M8.12897 11.131L12.128 6.191C12.441 5.804 13.027 6.045 13.027 6.559V10.383C13.027 10.692 13.257 10.942 13.541 10.942H15.485C15.927 10.942 16.163 11.508 15.871 11.869L11.872 16.809C11.559 17.196 10.973 16.955 10.973 16.441V12.617C10.973 12.308 10.743 12.058 10.459 12.058H8.51497C8.07397 12.058 7.83797 11.492 8.12997 11.131" stroke="#D8D7D3" stroke-width="1.5" stroke-linecap="round" stroke-linejoin="round"/>
</svg>
