<svg width="24" height="24" viewBox="0 0 24 24" fill="none" xmlns="http://www.w3.org/2000/svg">
<path d="M2 12C2 17.523 6.477 22 12 22C17.523 22 22 17.523 22 12C22 6.477 17.523 2 12 2C7.9 2 4.375 4.468 2.832 8M2 4.5L2.5 8.5L6.5 7.5" stroke="#D8D7D3" stroke-width="1.5" stroke-linecap="round" stroke-linejoin="round"/>
<path d="M14.726 10.06C14.626 9.298 13.753 8.065 12.181 8.065C10.355 8.065 9.58702 9.079 9.43102 9.585C9.18802 10.263 9.23602 11.656 11.377 11.808C14.052 11.998 15.124 12.315 14.987 13.955C14.851 15.595 13.36 15.95 12.181 15.912C11.003 15.874 9.07402 15.332 8.99902 13.872M11.994 6.5V8.07M11.994 15.903V17.5" stroke="#D8D7D3" stroke-width="1.5" stroke-linecap="round" stroke-linejoin="round"/>
</svg>
