<svg width="24" height="24" viewBox="0 0 24 24" fill="none" xmlns="http://www.w3.org/2000/svg">
<path fill-rule="evenodd" clip-rule="evenodd" d="M20.25 7.572C19.84 7.572 19.5 7.232 19.5 6.822V5.678C17.833 7.308 13.538 10.846 5.478 13.533C5.40285 13.5596 5.32371 13.5731 5.244 13.573C5.0668 13.5717 4.89579 13.5077 4.76129 13.3923C4.62679 13.2769 4.53749 13.1176 4.50921 12.9427C4.48093 12.7678 4.51551 12.5885 4.60681 12.4366C4.69811 12.2847 4.84024 12.1701 5.008 12.113C12.805 9.511 16.958 6.051 18.477 4.573H17.25C16.84 4.573 16.5 4.233 16.5 3.823C16.5 3.413 16.84 3.073 17.25 3.073H20.25C20.66 3.073 21 3.413 21 3.823V6.823C21 7.233 20.66 7.572 20.25 7.572ZM5.244 13.573H5.248H5.238H5.244ZM19.75 22.573C19.22 22.573 18.9 22.573 18.58 22.443C18.15 22.263 17.81 21.923 17.63 21.493C17.5 21.173 17.5 20.853 17.5 20.323V11.323C17.5 10.793 17.5 10.473 17.63 10.153C17.81 9.723 18.15 9.383 18.58 9.203C18.9 9.073 19.22 9.073 19.75 9.073C20.28 9.073 20.6 9.073 20.92 9.203C21.35 9.383 21.69 9.723 21.87 10.153C22 10.473 22 10.793 22 11.323V20.323C22 20.853 22 21.173 21.87 21.493C21.69 21.923 21.35 22.263 20.92 22.443C20.6 22.573 20.28 22.573 19.75 22.573ZM19.75 10.573C19.49 10.573 19.22 10.573 19.15 10.593C19.09 10.613 19.05 10.663 19.02 10.723C19 10.783 19 11.053 19 11.323V20.323C19 20.583 19 20.853 19.02 20.923C19.04 20.983 19.09 21.033 19.15 21.053C19.28 21.093 20.21 21.093 20.35 21.053C20.41 21.033 20.45 20.983 20.48 20.923C20.5 20.863 20.5 20.593 20.5 20.323V11.323C20.5 11.063 20.5 10.793 20.48 10.723C20.4696 10.6929 20.4525 10.6655 20.43 10.643C20.4075 10.6205 20.3801 10.6034 20.35 10.593C20.29 10.573 20.02 10.573 19.75 10.573ZM12.75 22.573C12.22 22.573 11.9 22.573 11.58 22.443C11.15 22.263 10.81 21.923 10.63 21.493C10.5 21.173 10.5 20.853 10.5 20.323V14.823C10.5 14.293 10.5 13.973 10.63 13.653C10.81 13.223 11.15 12.883 11.58 12.703C11.9 12.573 12.22 12.573 12.75 12.573C13.28 12.573 13.6 12.573 13.92 12.703C14.35 12.883 14.69 13.223 14.87 13.653C15 13.973 15 14.293 15 14.823V20.323C15 20.853 15 21.173 14.87 21.493C14.69 21.923 14.35 22.263 13.92 22.443C13.6 22.573 13.28 22.573 12.75 22.573ZM12.75 14.073C12.49 14.073 12.22 14.073 12.15 14.093C12.09 14.113 12.05 14.163 12.02 14.223C12 14.283 12 14.553 12 14.823V20.323C12 20.583 12 20.853 12.02 20.923C12.04 20.983 12.09 21.033 12.15 21.053C12.28 21.093 13.21 21.093 13.35 21.053C13.41 21.033 13.45 20.983 13.48 20.923C13.5 20.863 13.5 20.593 13.5 20.323V14.823C13.5 14.563 13.5 14.293 13.48 14.223C13.4696 14.1929 13.4525 14.1655 13.43 14.143C13.4075 14.1205 13.3801 14.1034 13.35 14.093C13.29 14.073 13.02 14.073 12.75 14.073ZM4.58 22.443C4.9 22.573 5.22 22.573 5.75 22.573C6.28 22.573 6.6 22.573 6.92 22.443C7.35 22.263 7.69 21.923 7.87 21.493C8 21.173 8 20.853 8 20.323V17.323C8 16.793 8 16.473 7.87 16.153C7.69 15.723 7.35 15.383 6.92 15.203C6.6 15.073 6.28 15.073 5.75 15.073C5.22 15.073 4.9 15.073 4.58 15.203C4.15 15.383 3.81 15.723 3.63 16.153C3.5 16.473 3.5 16.793 3.5 17.323V20.323C3.5 20.853 3.5 21.173 3.63 21.493C3.81 21.923 4.15 22.263 4.58 22.443ZM5.15 16.593C5.22 16.573 5.49 16.573 5.75 16.573C6.02 16.573 6.29 16.573 6.35 16.593C6.41 16.613 6.46 16.663 6.48 16.723C6.5 16.793 6.5 17.063 6.5 17.323V20.323C6.5 20.593 6.5 20.863 6.48 20.923C6.45 20.983 6.41 21.033 6.35 21.053C6.21 21.093 5.28 21.093 5.15 21.053C5.11989 21.0426 5.09254 21.0255 5.07002 21.003C5.0475 20.9805 5.03039 20.9531 5.02 20.923C5 20.853 5 20.583 5 20.323V17.323C5 17.053 5 16.783 5.02 16.723C5.05 16.663 5.09 16.613 5.15 16.593Z" fill="#D8D7D3"/>
</svg>
