<?xml version="1.0" encoding="UTF-8"?><svg width="243px" height="80px" viewBox="0 0 243 80" version="1.1" xmlns="http://www.w3.org/2000/svg" xmlns:xlink="http://www.w3.org/1999/xlink">    <title>MaxCap Logo</title>    <g id="Styles" stroke="none" stroke-width="1" fill="none" fill-rule="evenodd">        <g transform="translate(-96.000000, -240.000000)" id="Branding">            <g transform="translate(48.000000, 112.000000)">                <g id="Logo" transform="translate(0.000000, 52.000000)">                    <g id="MaxCap-Logo" transform="translate(48.000000, 76.000000)">                        <path d="M179.495556,51.3333333 C185.613262,51.3333333 190.666667,55.978062 190.666667,62.2211204 C190.666667,68.5030492 185.727336,73.185488 179.495556,73.185488 C176.265593,73.185488 173.226138,71.7008689 171.402118,69.0362125 L171.402118,69.0362125 L171.326262,69.0362125 L171.326262,80 L168.666667,80 L168.666667,51.8664967 L171.326262,51.8664967 L171.326262,55.5214793 L171.402118,55.5214793 C173.301994,52.8179525 176.227954,51.3333333 179.495556,51.3333333 Z M90.7446164,44 C95.2201596,44 99.5398031,45.8761895 102.497223,49.2078119 C103.237016,50.0119765 103.937105,51.0081369 104.365682,52.0416459 L104.365682,52.0416459 L101.018805,52.0416459 C98.9950306,48.5950595 94.7530448,46.5653901 90.7837373,46.5653901 C83.9732044,46.5653901 78.2136796,51.9266819 78.2136796,58.7048907 C78.2136796,65.5595477 84.0508622,70.7673597 90.900516,70.7673597 C95.9593686,70.7673597 101.252363,67.3207732 102.536344,62.3808216 L102.536344,62.3808216 L86.4635098,62.3808216 L86.4635098,59.8154315 L106,59.8154315 C105.37757,67.5892171 98.6055736,73.3333333 90.7837373,73.3333333 C82.610981,73.3333333 75.3333333,66.8615007 75.3333333,58.6663749 C75.3333333,50.3953845 82.4942023,44 90.7446164,44 Z M130.961609,51.3333333 C136.961716,51.3333333 142,56.3540948 142,62.3333333 C142,68.3511213 137.0004,73.3333333 130.961609,73.3333333 C125.03887,73.3333333 120,68.3890865 120,62.4869467 C120,56.4311935 124.846623,51.3333333 130.961609,51.3333333 Z M147.964155,52 L147.964155,63.4666376 C147.964155,67.771271 149.504624,70.9334204 154.20162,70.9334204 C155.930495,70.9334204 157.28313,70.4759624 158.560745,69.2568484 C160.364639,67.5048075 160.703084,65.4474076 160.703084,63.0091796 L160.703084,63.0091796 L160.703084,52 L163.333333,52 L163.333333,72.8381409 L160.853122,72.8381409 L160.853122,69.5999419 L160.778103,69.5999419 C159.575507,72.1525344 156.907462,73.3333333 154.20162,73.3333333 C151.534148,73.3333333 148.828307,72.3806828 147.137227,70.2094989 C145.671778,68.342513 145.333333,65.8288161 145.333333,63.5049527 L145.333333,63.5049527 L145.333333,52 L147.964155,52 Z M118,51.3333333 L118,54.1474117 C114.318274,54.451652 112.017487,56.7714123 112.017487,60.4982117 L112.017487,60.4982117 L112.017487,72.6666667 L109.333333,72.6666667 L109.333333,51.8658988 L112.017487,51.8658988 L112.017487,54.870055 L112.094044,54.870055 C113.244729,52.207807 115.277276,51.5234111 118,51.3333333 L118,51.3333333 Z M131.000293,53.7479247 C126.231038,53.7479247 122.692634,57.8107931 122.692634,62.4483973 C122.692634,67.0094869 126.346503,70.9187419 131.000293,70.9187419 C135.84633,70.9187419 139.307953,66.9323882 139.307953,62.2182693 C139.307953,57.6577639 135.615399,53.7479247 131.000293,53.7479247 Z M179.495556,53.7316981 C174.783794,53.7316981 171.17455,57.6529723 171.17455,62.297701 C171.17455,66.9418495 174.783794,70.7871232 179.495556,70.7871232 C184.35961,70.7871232 188.007071,67.2087212 188.007071,62.3354111 C188.007071,57.4243908 184.435466,53.7316981 179.495556,53.7316981 Z M232.479871,17.3333333 C238.945504,17.3333333 242.666667,22.6590504 242.666667,28.7399109 C242.666667,34.593998 238.606957,39.7303538 232.517678,39.7303538 C230.036712,39.7303538 227.931529,38.9752105 226.240508,37.1241885 L226.240508,37.1241885 L226.240508,46 L220,46 L220,18.0510648 L225.864153,18.0510648 L225.864153,20.3550576 L225.977002,20.3550576 C227.592981,18.3158254 229.923863,17.3333333 232.479871,17.3333333 Z M202.689555,17.3333333 C205.0268,17.3333333 207.632627,18.2129023 208.896713,20.3151303 L208.896713,20.3151303 L208.9732,20.3151303 L208.9732,18.0597058 L215.333333,18.0597058 L215.333333,39.2736275 L208.9732,39.2736275 L208.9732,36.9803408 L208.896713,36.9803408 C207.747066,39.1588758 204.988848,40 202.689555,40 C196.137911,40 192,34.9544197 192,28.6477355 C192,22.4552206 196.29147,17.3333333 202.689555,17.3333333 Z M120.023155,17.3333333 C122.359875,17.3333333 124.965767,18.2129023 126.229885,20.3151303 L126.229885,20.3151303 L126.306374,20.3151303 L126.306374,18.0597058 L132.666667,18.0597058 L132.666667,39.2736275 L126.306374,39.2736275 L126.306374,36.9803408 L126.229885,36.9803408 C125.080793,39.1588758 122.321922,40 120.023155,40 C113.471348,40 109.333333,34.9544197 109.333333,28.6477355 C109.333333,22.4552206 113.624326,17.3333333 120.023155,17.3333333 Z M143.869013,18 L147.314084,23.6117228 L150.720656,18 L158.26178,18 L151.103895,27.9171678 L159.333333,39.3333333 L151.562966,39.3333333 L147.314084,32.7216929 L142.988787,39.3333333 L135.333333,39.3333333 L143.409942,27.9171678 L136.252058,18 L143.869013,18 Z M174.897196,10 C180.041968,10 184.572386,12.368389 187.413625,16.6459243 C188.335155,18.0207424 189.064773,19.6248909 189.333333,21.2674551 L189.333333,21.2674551 L181.731147,21.2674551 C180.61829,18.3647379 178.045611,16.3403445 174.858579,16.3403445 C170.251513,16.3403445 167.256978,20.2360505 167.256978,24.5904172 C167.256978,28.944784 170.251513,32.9935709 174.897196,32.9935709 C178.083643,32.9935709 180.464409,31.0075932 181.731147,28.2189592 L181.731147,28.2189592 L189.333333,28.2189592 C187.682185,34.9032992 181.846412,39.3333333 174.973843,39.3333333 C166.719272,39.3333333 160,32.9167394 160,24.628833 C160,16.3403445 166.642624,10 174.897196,10 Z M85.3338407,10.6666667 L90.9803899,29.0936524 L91.0576597,29.0936524 L96.6269391,10.6666667 L106,10.6666667 L106,38.6666667 L99.4636773,38.6666667 L99.4701165,17.628754 L93.4003395,38.6666667 L88.5990751,38.6666667 L82.5298835,17.628754 L82.5333958,38.6666667 L76,38.6666667 L76,10.6666667 L85.3338407,10.6666667 Z M203.609155,23.2584826 C200.505868,23.2584826 198.360133,25.7043833 198.360133,28.7240425 C198.360133,31.6673948 200.659427,34.0754332 203.647691,34.0754332 C206.750978,34.0754332 208.9732,31.705257 208.9732,28.6477355 C208.9732,25.5517693 206.712442,23.2584826 203.609155,23.2584826 Z M120.942195,23.2584826 C117.83883,23.2584826 115.693042,25.7043833 115.693042,28.7240425 C115.693042,31.6673948 117.992393,34.0754332 120.980732,34.0754332 C124.084097,34.0754332 126.306374,31.705257 126.306374,28.6477355 C126.306374,25.5517693 124.046144,23.2584826 120.942195,23.2584826 Z M231.201867,23.1879961 C228.194462,23.1879961 225.977002,25.5668126 225.977002,28.5505495 C225.977002,31.4968745 228.232269,33.8762666 231.201867,33.8762666 C234.171464,33.8762666 236.426731,31.4968745 236.426731,28.5505495 C236.426731,25.5668126 234.209272,23.1879961 231.201867,23.1879961 Z" id="MaxCap-Group" fill="#FFFFFF"></path>                        <g id="Logomark" transform="translate(0.000000, 0.000000)" fill="#B4673B">                            <path d="M43.0860935,39.1192629 L29.1484935,49.3028846 C28.9037348,49.4816406 28.5970002,49.5394748 28.3470141,49.442128 L19.9976201,46.5464916 L35.9565945,34.8858477 L43.9459606,37.4237512 C43.9331579,37.699545 43.8321534,38.5542542 43.0860935,39.1192629 L43.0860935,39.1192629 Z M1.72816808,22.8068113 C1.70278405,22.798688 1.68311476,22.7844723 1.65950275,22.7743623 L9.11199462,17.3289906 L17.1287826,19.8648634 L17.1287826,27.6743271 L1.72816808,22.8068113 Z M1.55854256,11.947678 L15.8046936,1.53859148 C16.1895295,1.25785306 16.7871837,1.11172251 17.1287826,1.20637626 L17.1287826,10.0131479 L1.24937138,21.6159135 L1.18243376,12.6789488 L1.18114905,12.6451754 C1.16511237,12.4001971 1.31298648,12.1266989 1.55854256,11.947678 L1.55854256,11.947678 Z M17.1287826,18.6312302 L10.2902474,16.4680566 L17.1287826,11.4712747 L17.1287826,18.6312302 Z M26.0682554,4.42495679 L26.0682554,40.6527507 L18.6598866,46.0658059 C18.4392272,45.9481068 18.3089846,45.7415374 18.3089846,45.4776636 L18.3089846,1.58777258 L25.8143266,4.03852757 C25.976111,4.10527966 26.0682554,4.24540605 26.0682554,4.42495679 L26.0682554,4.42495679 Z M34.5657007,34.4440125 L27.2484574,39.7904039 L27.2484574,32.1195655 L34.5657007,34.4440125 Z M43.6543766,28.3274115 C43.8253755,28.3815813 43.9312087,28.5111563 43.9466694,28.6835992 L43.9466694,36.1895441 L27.2484574,30.8851376 L27.2484574,23.0717446 L43.6543766,28.3274115 Z M45.1268714,37.2903795 L45.1268714,28.6626729 L45.1258525,28.6276193 C45.0854064,27.9560368 44.6586625,27.4116895 44.0139172,27.2072833 L27.2484574,21.8363455 L27.2484574,4.42495679 C27.2484574,3.74878292 26.8571536,3.1785206 26.2274261,2.93667675 L17.5894162,0.115915667 C16.7921453,-0.179170916 15.7393064,0.129292572 15.1074525,0.589890765 L0.861523015,10.9987124 C0.295587799,11.411189 -0.0321451748,12.0625958 0.00249759154,12.7030096 L0.0739538346,22.2464823 L0.075282841,22.2784014 C0.123570073,23.0569991 0.619688154,23.6887599 1.37048816,23.9274692 L17.1287826,28.9082252 L17.1287826,45.4778843 C17.1293142,46.2627952 17.5833914,46.9251948 18.3329067,47.2138799 L27.9383446,50.5452591 C28.1479289,50.6266242 28.3722209,50.6666667 28.5998797,50.6666667 C29.0303448,50.6666667 29.4720623,50.5240238 29.8457346,50.2515853 L43.7917516,40.0616946 C45.1342253,39.0454471 45.1332063,37.4976553 45.1268714,37.2903795 L45.1268714,37.2903795 Z" id="Fill-1"></path>                        </g>                    </g>                </g>            </g>        </g>    </g></svg>