<svg width="326" height="152" viewBox="0 0 326 152" fill="none" xmlns="http://www.w3.org/2000/svg">
<g clip-path="url(#clip0_20_43)">
<path d="M107.72 5.11001C105.28 3.81001 102.46 2.90001 99.2501 2.29001C96.0501 1.68001 92.6101 1.45001 88.9501 1.45001H64.6901V2.21001C65.9101 2.59001 66.8301 2.97001 67.5101 3.51001C68.2001 4.04001 68.7301 5.04001 69.0401 6.64001C69.4201 8.17001 69.5701 10.53 69.6501 13.51C69.7301 16.49 69.7301 20.6 69.7301 25.72V41.5C69.7301 46.69 69.6501 50.73 69.5801 53.71C69.5001 56.69 69.3501 59.05 68.9701 60.58C68.5901 62.11 68.1301 63.17 67.4401 63.71C66.7501 64.24 65.8401 64.63 64.6201 65.01H64.7001V65.85H82.3201V65C81.0201 64.62 80.0301 64.24 79.3401 63.7C78.6501 63.17 78.1201 62.17 77.8101 60.57C77.4301 59.04 77.2001 56.76 77.1201 53.78C77.0401 50.8 76.9701 46.69 76.9701 41.57V36.23H89.4001C92.9101 36.23 96.2701 35.85 99.4701 35.16C102.67 34.47 105.42 33.33 107.79 31.8C110.23 30.27 112.06 28.37 113.44 26C114.81 23.71 115.5 21.04 115.5 17.91C115.5 14.78 114.81 12.26 113.44 10.13C111.99 8.16001 110.08 6.41001 107.72 5.11001ZM106.5 26.93C105.36 29.07 103.91 30.82 102.08 32.04C100.25 33.26 98.1901 34.1 95.9001 34.56C93.6101 35.02 91.2501 35.25 88.8101 35.25H76.6701L76.7501 2.37001H88.7301C91.0201 2.37001 93.3801 2.52001 95.6701 2.90001C97.9601 3.28001 100.09 3.97001 101.85 5.04001C103.68 6.18001 105.13 7.79001 106.35 9.92001C107.57 12.06 108.18 15.03 108.18 18.69C108.25 21.97 107.64 24.72 106.5 26.93Z" fill="#D8D7D3"/>
<path d="M259.6 54.54C258.99 56.83 258.3 58.74 257.54 60.11C256.78 61.48 255.79 62.55 254.72 63.24C253.58 63.93 252.28 64.38 250.83 64.54C249.38 64.69 247.7 64.77 245.87 64.77H221.15V30.44H231C232.91 30.44 234.36 30.59 235.42 31.05C236.48 31.51 237.25 31.97 237.71 32.58C238.24 33.19 238.55 33.88 238.78 34.64C238.93 35.4 239.16 36.17 239.31 36.93H240.38V22.89H239.16C239.01 23.65 238.78 24.42 238.63 25.18C238.48 25.94 238.1 26.63 237.56 27.24C237.03 27.85 236.26 28.38 235.27 28.77C234.2 29.23 232.75 29.38 230.85 29.38H221V2.29001H244.04C245.87 2.29001 247.4 2.44001 248.77 2.75001C250.14 2.98001 251.36 3.51001 252.36 4.20001C253.43 4.89001 254.34 5.80001 255.18 7.02001C256.02 8.24001 256.78 9.77001 257.47 11.67H258.61L257.31 3.51001C257.16 2.44001 256.85 1.91001 256.62 1.68001C256.39 1.53001 255.93 1.45001 255.4 1.45001H208.71V2.21001C209.93 2.59001 210.85 2.97001 211.53 3.58001C212.22 4.19001 212.75 5.18001 213.06 6.78001C213.44 8.31001 213.59 10.59 213.67 13.57C213.75 16.55 213.75 20.66 213.75 25.78V41.57C213.75 46.76 213.67 50.8 213.6 53.78C213.52 56.76 213.37 59.12 212.99 60.65C212.61 62.18 212.15 63.24 211.46 63.78C210.77 64.31 209.86 64.7 208.64 65.08L209.02 65V65.84H257.84C258.45 65.84 258.91 65.76 259.14 65.61C259.37 65.46 259.6 64.85 259.67 63.86L260.81 54.55L259.6 54.54Z" fill="#D8D7D3"/>
<path d="M200.02 23.27H163.63L157.98 29.68H171.25C178.57 30.98 188.19 35.33 188.03 48.6C188.03 48.6 188.95 65.61 179.26 65.61C179.26 65.61 173.31 66.37 169.34 59.43C165.37 52.49 148.21 19.99 148.21 19.99C148.21 19.99 145.31 12.51 149.74 5.95C154.16 -0.69 162.94 1.3 165.23 2.59C167.52 3.89 172.17 9.3 166.15 17.62L167.29 18.15L176.98 6.71C176.98 6.71 171.11 0 158.98 0C146.85 0 140.52 8.09 140.52 17.01C140.52 17.01 140.29 20.9 143.42 26.01C144.18 27.23 144.95 28.68 145.78 30.21C144.56 29.9 143.03 29.68 141.36 29.68C137.01 29.68 121.75 32.81 122.36 49.97C122.97 67.21 138.91 67.67 141.74 67.67C144.64 67.67 149.14 66.98 151.5 65.08L150.2 64.32C150.2 64.32 147.68 65.62 143.64 65.62C138.07 65.62 129.22 57.69 128.23 47.85C127.24 38.01 132.12 30.99 140.51 30.99C143.56 30.99 146.69 33.89 149.44 37.55C150.2 39.08 150.66 40.14 150.66 40.14L161.57 59.9C161.57 59.9 165 67.15 175.38 67.15C185.76 67.15 195.75 60.67 195.75 51.66C195.75 43.19 191.63 35.79 175.84 29.69H194.3L200.02 23.27Z" fill="#D8D7D3"/>
<path d="M104.82 146.32H0V146.7H104.82V146.32Z" fill="#D8D7D3"/>
<path d="M325.36 146.32H220.54V146.7H325.36V146.32Z" fill="#D8D7D3"/>
<path d="M0 124.5C0.53 124.35 0.92 124.19 1.14 123.97C1.45 123.74 1.67 123.36 1.75 122.67C1.9 122.06 1.98 121.07 1.98 119.77C1.98 118.55 2.06 116.87 2.06 114.66V108.1C2.06 105.96 2.06 104.29 2.06 102.99C2.06 101.77 1.98 100.78 1.83 100.09C1.68 99.48 1.45 99.02 1.22 98.79C0.91 98.56 0.53 98.41 0.08 98.26V97.95H20.52C20.75 97.95 20.9 97.95 20.98 98.03C21.06 98.11 21.13 98.34 21.21 98.72L21.74 102.15H21.21C20.98 101.39 20.68 100.7 20.37 100.24C20.06 99.71 19.68 99.32 19.15 99.1C18.69 98.79 18.08 98.57 17.47 98.49C16.86 98.41 16.1 98.34 15.18 98.34H5.26V109.55H9.68C10.44 109.55 11.05 109.47 11.51 109.32C11.97 109.17 12.27 108.94 12.5 108.71C12.73 108.48 12.88 108.18 12.96 107.87C13.04 107.56 13.11 107.26 13.19 106.88H13.65V112.75H13.2C13.12 112.44 13.05 112.14 12.97 111.76C12.89 111.45 12.74 111.15 12.51 110.92C12.28 110.69 11.98 110.46 11.52 110.31C11.06 110.16 10.45 110.08 9.69 110.08H5.26V114.73C5.26 116.87 5.26 118.54 5.34 119.84C5.34 121.06 5.49 122.05 5.65 122.66C5.8 123.27 6.03 123.73 6.26 123.96C6.57 124.19 6.95 124.34 7.4 124.49V124.87H0.15V124.49L0 124.5Z" fill="#D8D7D3"/>
<path d="M22.3501 124.5C22.6601 124.42 22.9601 124.27 23.1901 124.12C23.4201 123.97 23.7201 123.74 23.9501 123.43C24.1801 123.12 24.4801 122.67 24.7901 122.21C25.1001 121.68 25.4001 121.07 25.7801 120.15L34.2501 100.24C33.8701 99.55 33.5601 99.1 33.1801 98.87C32.8001 98.64 32.4201 98.49 31.9601 98.34V98.03H35.9301C36.1601 98.03 36.3101 98.03 36.3901 98.11C36.4701 98.19 36.5401 98.34 36.7001 98.64L46.3101 120.31C46.5401 120.92 46.7701 121.38 47.0001 121.84C47.2301 122.3 47.4601 122.68 47.6101 122.98C47.8401 123.29 48.0701 123.59 48.3701 123.82C48.6801 124.05 48.9801 124.28 49.4401 124.43V124.81H43.3401V124.43C44.0301 124.28 44.4101 123.9 44.4101 123.44C44.4101 122.98 44.1801 122.22 43.7201 121.08L41.5801 116.35H27.8401L26.2401 120.09C26.0901 120.47 25.9301 120.85 25.7801 121.23C25.6301 121.69 25.5501 122.07 25.5501 122.45C25.5501 122.83 25.6301 123.21 25.8601 123.59C26.0901 123.97 26.4701 124.2 27.0001 124.35V124.66H22.3501V124.5ZM34.4101 100.77L27.9301 116.03H41.1301L34.4101 100.77Z" fill="#D8D7D3"/>
<path d="M54.8501 124.58C55.3101 124.35 55.6901 124.12 55.9901 123.89C56.3001 123.66 56.5201 123.2 56.6001 122.52C56.7501 121.83 56.8301 120.84 56.9101 119.62C56.9101 118.4 56.9901 116.72 56.9901 114.51V108.18C56.9901 106.04 56.9901 104.37 56.9901 103.07C56.9901 101.85 56.9101 100.86 56.7601 100.25C56.6101 99.64 56.3801 99.18 56.1501 98.95C55.8401 98.72 55.4601 98.49 55.0101 98.34V98.03H60.0401C60.2701 98.03 60.4201 98.03 60.5001 98.18C60.5801 98.26 60.7301 98.56 60.8801 99.02L70.8001 121.37L81.1701 98.03H86.4301V98.34C85.9001 98.49 85.5101 98.65 85.2901 98.87C84.9801 99.1 84.7601 99.48 84.6801 100.17C84.5301 100.78 84.4501 101.77 84.4501 102.99C84.4501 104.21 84.4501 105.89 84.4501 108.1V114.66C84.4501 116.8 84.4501 118.47 84.5301 119.77C84.5301 120.99 84.6801 121.98 84.8401 122.59C85.0001 123.2 85.2201 123.66 85.4501 123.89C85.7601 124.12 86.1401 124.27 86.5901 124.42V124.8H79.3401V124.42C79.8701 124.27 80.2601 124.11 80.4801 123.89C80.7901 123.66 81.0101 123.28 81.0901 122.59C81.2401 121.98 81.3201 120.99 81.3201 119.69C81.3201 118.47 81.4001 116.79 81.4001 114.58V98.71L69.8001 124.88H69.2701L57.6001 98.64V114.36C57.6001 116.5 57.6001 118.17 57.6801 119.47C57.6801 120.69 57.8301 121.68 57.9901 122.37C58.1401 123.06 58.4501 123.51 58.7501 123.74C59.0601 123.97 59.5101 124.2 60.1201 124.35V124.73H55.0001V124.35L54.8501 124.58Z" fill="#D8D7D3"/>
<path d="M92.23 124.5C92.76 124.35 93.15 124.19 93.37 123.97C93.68 123.74 93.9 123.36 93.98 122.67C94.13 122.06 94.21 121.07 94.21 119.77C94.21 118.55 94.29 116.87 94.29 114.66V108.1C94.29 105.96 94.29 104.29 94.29 102.99C94.29 101.77 94.21 100.78 94.06 100.09C93.91 99.48 93.68 99.02 93.45 98.79C93.14 98.56 92.76 98.41 92.31 98.26V97.95H99.56V98.26C99.03 98.41 98.64 98.57 98.42 98.79C98.11 99.02 97.89 99.4 97.81 100.09C97.66 100.7 97.58 101.69 97.58 102.91C97.58 104.13 97.58 105.81 97.58 108.02V114.58C97.58 116.72 97.58 118.39 97.66 119.69C97.66 120.91 97.81 121.9 97.97 122.51C98.13 123.12 98.35 123.58 98.58 123.81C98.89 124.04 99.27 124.19 99.72 124.34V124.72H92.47V124.34L92.23 124.5Z" fill="#D8D7D3"/>
<path d="M105.28 124.42C105.81 124.27 106.2 124.11 106.42 123.89C106.73 123.66 106.95 123.28 107.03 122.59C107.18 121.98 107.26 120.99 107.26 119.69C107.26 118.47 107.34 116.79 107.34 114.58V108.02C107.34 105.88 107.34 104.21 107.34 102.91C107.34 101.69 107.26 100.7 107.11 100.01C106.96 99.4 106.73 98.94 106.5 98.71C106.19 98.48 105.81 98.33 105.36 98.18V97.87H112.68V98.18C112.15 98.33 111.76 98.49 111.46 98.71C111.15 98.94 110.93 99.32 110.85 100.01C110.7 100.62 110.62 101.61 110.54 102.83C110.54 104.05 110.54 105.73 110.54 107.94V124.27H119.39C120.15 124.27 120.84 124.27 121.45 124.19C122.06 124.11 122.59 123.88 123.05 123.58C123.51 123.27 123.97 122.82 124.27 122.21C124.65 121.6 124.96 120.76 125.26 119.69H125.79L125.18 123.96C125.18 124.34 125.1 124.57 124.95 124.65C124.87 124.73 124.64 124.73 124.42 124.73H105.5V124.35H105.27V124.42H105.28Z" fill="#D8D7D3"/>
<path d="M135.56 124.5C136.09 124.35 136.48 124.19 136.7 123.97C137.01 123.74 137.23 123.36 137.31 122.67C137.46 122.06 137.54 121.07 137.54 119.77C137.54 118.55 137.62 116.87 137.62 114.66V112.07L130.91 102.53C130.45 101.84 130.07 101.31 129.77 100.78C129.46 100.25 129.16 99.86 128.85 99.56C128.54 99.25 128.24 98.95 127.93 98.8C127.62 98.57 127.24 98.42 126.86 98.27V97.96H133.65V98.27C133.04 98.35 132.73 98.65 132.51 99.03C132.36 99.41 132.51 100.02 133.12 100.86L140.21 111.01L146.39 102.47C147.23 101.33 147.76 100.41 147.99 99.72C148.22 99.03 147.91 98.58 147 98.35V98.04H151.2V98.35C150.89 98.43 150.59 98.58 150.36 98.73C150.13 98.88 149.83 99.11 149.52 99.34C149.21 99.65 148.83 100.03 148.38 100.48C147.92 101.01 147.46 101.62 146.93 102.39L140.52 111.39V114.52C140.52 116.66 140.52 118.33 140.6 119.63C140.68 120.93 140.75 121.84 140.91 122.45C141.07 123.06 141.29 123.52 141.52 123.75C141.83 123.98 142.21 124.13 142.66 124.28V124.66H135.49V124.28L135.56 124.5Z" fill="#D8D7D3"/>
<path d="M184.16 125.26C182.41 125.26 180.65 124.88 178.97 124.19C177.29 123.5 175.84 122.51 174.62 121.29C173.4 120.07 172.33 118.62 171.64 116.94C170.88 115.26 170.5 113.43 170.5 111.37C170.5 109.39 170.88 107.56 171.64 105.88C172.4 104.2 173.39 102.75 174.62 101.53C175.84 100.31 177.37 99.32 178.97 98.63C180.65 97.94 182.33 97.56 184.16 97.56C185.91 97.56 187.67 97.87 189.35 98.55C191.03 99.24 192.48 100.15 193.7 101.37C194.92 102.59 195.99 104.04 196.68 105.72C197.44 107.4 197.82 109.23 197.82 111.21C197.82 113.19 197.44 115.1 196.68 116.78C195.92 118.46 194.93 119.91 193.7 121.13C192.48 122.35 190.95 123.27 189.35 123.95C187.67 124.64 185.99 124.94 184.16 124.94V125.26ZM184.08 124.88C185.45 124.88 186.75 124.65 188.05 124.12C189.27 123.59 190.41 122.82 191.41 121.76C192.4 120.69 193.16 119.32 193.7 117.64C194.31 115.96 194.54 113.9 194.54 111.54C194.54 109.18 194.23 107.12 193.7 105.44C193.09 103.76 192.4 102.39 191.41 101.32C190.42 100.25 189.35 99.49 188.05 98.96C186.83 98.43 185.46 98.2 184.08 98.2C182.71 98.2 181.41 98.43 180.11 98.96C178.89 99.49 177.75 100.18 176.75 101.25C175.75 102.32 175 103.61 174.46 105.37C173.85 107.05 173.62 109.11 173.62 111.47C173.62 113.83 173.93 115.89 174.46 117.57C175.07 119.25 175.83 120.62 176.82 121.69C177.81 122.76 178.88 123.52 180.18 124.05C181.49 124.58 182.78 124.8 184.08 124.88Z" fill="#D8D7D3"/>
<path d="M204.3 124.5C204.83 124.35 205.22 124.19 205.44 123.97C205.75 123.74 205.97 123.36 206.05 122.67C206.2 122.06 206.28 121.07 206.28 119.77C206.28 118.55 206.36 116.87 206.36 114.66V108.1C206.36 105.96 206.36 104.29 206.36 102.99C206.36 101.77 206.28 100.78 206.13 100.09C205.98 99.48 205.75 99.02 205.52 98.79C205.21 98.56 204.83 98.41 204.38 98.26V97.95H224.82C225.05 97.95 225.2 97.95 225.28 98.03C225.36 98.11 225.43 98.34 225.51 98.72L226.04 102.15H225.51C225.28 101.39 224.98 100.7 224.67 100.24C224.36 99.71 223.98 99.32 223.53 99.1C223.07 98.79 222.46 98.57 221.85 98.49C221.24 98.41 220.48 98.34 219.56 98.34H209.57V109.55H213.99C214.75 109.55 215.36 109.47 215.82 109.32C216.28 109.17 216.58 108.94 216.81 108.71C217.04 108.48 217.19 108.18 217.27 107.87C217.35 107.56 217.42 107.26 217.5 106.88H217.96V112.75H217.5C217.42 112.44 217.35 112.14 217.27 111.76C217.19 111.45 217.04 111.15 216.81 110.92C216.58 110.69 216.28 110.46 215.82 110.31C215.36 110.16 214.75 110.08 213.99 110.08H209.57V114.73C209.57 116.87 209.57 118.54 209.65 119.84C209.73 121.14 209.8 122.05 209.96 122.66C210.11 123.27 210.34 123.73 210.57 123.96C210.88 124.19 211.26 124.34 211.71 124.49V124.87H204.46V124.49L204.3 124.5Z" fill="#D8D7D3"/>
<path d="M231.68 124.5C232.21 124.35 232.6 124.19 232.82 123.97C233.13 123.74 233.35 123.36 233.43 122.67C233.58 122.06 233.66 121.07 233.66 119.77C233.66 118.55 233.74 116.87 233.74 114.66V108.1C233.74 105.96 233.74 104.29 233.74 102.99C233.74 101.77 233.66 100.78 233.51 100.09C233.36 99.48 233.13 99.02 232.9 98.79C232.59 98.56 232.21 98.41 231.76 98.26V97.95H252.13C252.36 97.95 252.51 97.95 252.59 98.03C252.67 98.11 252.74 98.34 252.82 98.72L253.35 102.15H252.89C252.66 101.39 252.36 100.7 252.05 100.24C251.74 99.71 251.36 99.32 250.91 99.1C250.45 98.79 249.84 98.57 249.23 98.49C248.62 98.41 247.86 98.34 246.94 98.34H236.87V109.55H241.29C242.05 109.55 242.66 109.47 243.12 109.32C243.58 109.17 243.88 108.94 244.11 108.71C244.34 108.48 244.49 108.18 244.57 107.87C244.65 107.56 244.72 107.26 244.8 106.88H245.26V112.75H244.8C244.72 112.44 244.65 112.14 244.57 111.76C244.49 111.45 244.34 111.15 244.11 110.92C243.88 110.69 243.58 110.46 243.12 110.31C242.66 110.16 242.05 110.08 241.29 110.08H236.87V114.73C236.87 116.87 236.87 118.54 236.95 119.84C237.03 121.14 237.1 122.05 237.26 122.66C237.41 123.27 237.64 123.73 237.87 123.96C238.18 124.19 238.56 124.34 239.01 124.49V124.87H231.76L231.68 124.5Z" fill="#D8D7D3"/>
<path d="M259.15 124.5C259.68 124.35 260.07 124.19 260.29 123.97C260.6 123.74 260.82 123.36 260.9 122.67C261.05 122.06 261.13 121.07 261.13 119.77C261.13 118.55 261.21 116.87 261.21 114.66V108.1C261.21 105.96 261.21 104.29 261.21 102.99C261.21 101.77 261.13 100.78 260.98 100.09C260.83 99.48 260.6 99.02 260.37 98.79C260.06 98.56 259.68 98.41 259.23 98.26V97.95H266.48V98.26C265.95 98.41 265.56 98.57 265.34 98.79C265.03 99.02 264.81 99.4 264.73 100.09C264.58 100.7 264.5 101.69 264.5 102.91C264.5 104.13 264.5 105.81 264.5 108.02V114.58C264.5 116.72 264.5 118.39 264.58 119.69C264.58 120.91 264.73 121.9 264.89 122.51C265.04 123.12 265.27 123.58 265.5 123.81C265.81 124.04 266.19 124.19 266.64 124.34V124.72H259.39V124.34L259.15 124.5Z" fill="#D8D7D3"/>
<path d="M286.76 125.26C284.62 125.26 282.64 124.88 280.96 124.12C279.21 123.36 277.83 122.37 276.61 121.14C275.47 119.92 274.55 118.47 273.94 116.87C273.33 115.27 273.02 113.59 273.02 111.84C273.02 109.55 273.48 107.57 274.24 105.89C275.08 104.14 276.15 102.69 277.52 101.54C278.89 100.4 280.42 99.48 282.17 98.87C283.92 98.26 285.6 97.95 287.36 97.95C288.58 97.95 289.65 98.03 290.49 98.18C291.33 98.33 292.02 98.56 292.63 98.79C293.24 99.02 293.7 99.17 294.16 99.4C294.62 99.55 295 99.63 295.46 99.63C295.99 99.63 296.38 99.32 296.53 98.64H296.99V104.29H296.53C295.92 102.23 294.85 100.78 293.25 99.79C291.65 98.8 289.74 98.34 287.45 98.34C285.92 98.34 284.47 98.57 283.1 99.1C281.73 99.63 280.58 100.32 279.59 101.39C278.6 102.46 277.84 103.75 277.3 105.36C276.69 106.96 276.46 108.87 276.46 111.08C276.46 113.52 276.77 115.66 277.38 117.34C277.99 119.09 278.83 120.47 279.82 121.54C280.89 122.61 282.03 123.37 283.33 123.9C284.63 124.43 286 124.66 287.45 124.66C288.75 124.66 289.97 124.51 290.96 124.2C291.95 123.89 292.87 123.59 293.63 123.13C294.39 122.67 295 122.21 295.54 121.76C296.07 121.23 296.53 120.77 296.91 120.31L297.22 120.62C296.91 121.08 296.46 121.61 295.85 122.15C295.24 122.68 294.55 123.22 293.71 123.68C292.87 124.14 291.88 124.52 290.73 124.82C289.58 125.11 288.29 125.26 286.76 125.26Z" fill="#D8D7D3"/>
<path d="M303.7 124.42C304.23 124.27 304.62 124.11 304.84 123.89C305.15 123.66 305.37 123.28 305.45 122.59C305.6 121.98 305.68 120.99 305.68 119.69C305.68 118.47 305.76 116.79 305.76 114.58V108.02C305.76 105.88 305.76 104.21 305.76 102.91C305.76 101.69 305.68 100.7 305.53 100.09C305.38 99.48 305.15 99.02 304.92 98.79C304.61 98.56 304.23 98.33 303.78 98.18V97.87H323.08C323.31 97.87 323.46 97.87 323.61 97.95C323.69 98.03 323.84 98.26 323.92 98.71L324.53 102.14H324.07C323.76 101.38 323.46 100.69 323.08 100.23C322.7 99.7 322.32 99.31 321.94 99.09C321.48 98.78 321.02 98.56 320.41 98.48C319.8 98.4 319.19 98.33 318.43 98.33H308.82V109.62H312.94C313.7 109.62 314.31 109.54 314.77 109.39C315.23 109.24 315.53 109.01 315.76 108.78C315.99 108.55 316.14 108.25 316.22 107.94C316.3 107.63 316.37 107.33 316.45 106.95H316.91V112.82H316.45C316.37 112.51 316.3 112.21 316.22 111.83C316.14 111.52 315.99 111.22 315.76 110.99C315.53 110.76 315.23 110.53 314.77 110.38C314.31 110.23 313.7 110.15 312.94 110.15H308.82V124.42H319.12C319.88 124.42 320.57 124.42 321.18 124.34C321.79 124.26 322.32 124.11 322.78 123.81C323.24 123.51 323.62 123.12 323.92 122.51C324.22 121.9 324.53 121.14 324.76 120.15H325.29L324.83 124.04C324.83 124.42 324.75 124.65 324.6 124.73C324.52 124.81 324.29 124.81 324.07 124.81H303.78V124.43L303.7 124.42Z" fill="#D8D7D3"/>
<path d="M115.96 151.2C116.19 151.12 116.27 151.05 116.42 150.97C116.5 150.89 116.65 150.74 116.65 150.51C116.73 150.28 116.73 149.9 116.73 149.44C116.73 148.98 116.73 148.3 116.73 147.53V145.01C116.73 144.17 116.73 143.56 116.73 143.1C116.73 142.64 116.65 142.26 116.65 142.03C116.57 141.8 116.5 141.65 116.42 141.5C116.34 141.42 116.19 141.35 115.96 141.27V141.12H123.36C123.44 141.12 123.51 141.12 123.59 141.2C123.67 141.2 123.67 141.35 123.67 141.51L123.9 142.81H123.75C123.67 142.5 123.52 142.28 123.37 142.05C123.22 141.82 123.06 141.74 122.91 141.59C122.76 141.51 122.53 141.36 122.3 141.36C122.07 141.28 121.84 141.28 121.54 141.28H117.88V145.55H119.41C119.72 145.55 119.94 145.55 120.1 145.47C120.25 145.39 120.41 145.32 120.48 145.24C120.56 145.16 120.63 145.01 120.63 144.93C120.63 144.78 120.71 144.7 120.71 144.55H120.86V146.76H120.71C120.71 146.61 120.63 146.53 120.63 146.38C120.63 146.23 120.55 146.15 120.48 146.07C120.4 145.99 120.25 145.92 120.1 145.84C119.95 145.76 119.72 145.76 119.41 145.76H117.88V151.25H121.77C122.08 151.25 122.3 151.25 122.53 151.17C122.76 151.17 122.99 151.09 123.14 150.94C123.29 150.86 123.45 150.63 123.6 150.48C123.75 150.25 123.83 149.95 123.91 149.56H124.14L123.99 151.01C123.99 151.16 123.91 151.24 123.91 151.32C123.83 151.32 123.83 151.4 123.68 151.4H115.9L115.96 151.2Z" fill="#D8D7D3"/>
<path d="M131.52 151.58C130.99 151.58 130.6 151.5 130.3 151.43C129.99 151.35 129.69 151.28 129.46 151.12C129.23 151.04 129 150.89 128.85 150.81C128.7 150.73 128.47 150.66 128.24 150.66C128.01 150.66 127.93 150.74 127.86 150.97H127.63V148.68H127.86C127.94 149.06 128.09 149.44 128.24 149.75C128.47 150.06 128.7 150.36 129 150.59C129.31 150.82 129.69 150.97 130.14 151.12C130.6 151.27 130.98 151.27 131.51 151.27C131.97 151.27 132.43 151.19 132.73 151.04C133.04 150.89 133.34 150.73 133.57 150.58C133.8 150.35 133.95 150.12 134.03 149.82C134.11 149.52 134.18 149.21 134.18 148.9C134.18 148.52 134.1 148.21 134.03 147.98C133.95 147.75 133.72 147.52 133.5 147.29C133.27 147.06 132.89 146.91 132.51 146.76C132.13 146.61 131.59 146.45 130.98 146.23C130.52 146.08 130.06 145.92 129.68 145.77C129.3 145.62 128.99 145.39 128.69 145.24C128.46 145.01 128.23 144.78 128.08 144.48C127.93 144.18 127.85 143.87 127.85 143.49C127.85 143.03 127.93 142.73 128.16 142.35C128.31 142.04 128.54 141.74 128.85 141.51C129.16 141.28 129.46 141.13 129.84 140.98C130.22 140.83 130.6 140.83 131.06 140.83C131.52 140.83 131.9 140.83 132.2 140.91C132.51 140.99 132.73 141.06 132.96 141.14C133.19 141.22 133.34 141.29 133.49 141.37C133.64 141.45 133.8 141.45 133.95 141.45C134.18 141.45 134.33 141.37 134.41 141.14H134.56V142.89H134.41C134.26 142.28 133.88 141.75 133.27 141.44C132.66 141.13 131.97 140.98 131.06 140.98C130.3 140.98 129.76 141.13 129.31 141.44C128.85 141.75 128.62 142.2 128.62 142.81C128.62 143.12 128.7 143.34 128.77 143.57C128.85 143.8 129 143.95 129.23 144.18C129.46 144.33 129.69 144.49 130.07 144.64C130.45 144.79 130.91 144.95 131.44 145.1C131.9 145.25 132.43 145.41 132.81 145.56C133.27 145.71 133.65 145.87 133.95 146.17C134.26 146.4 134.56 146.7 134.71 147.01C134.94 147.32 135.02 147.77 135.02 148.23C135.02 148.69 134.94 149.07 134.79 149.45C134.64 149.83 134.41 150.14 134.1 150.44C133.79 150.74 133.41 150.97 132.96 151.13C132.51 151.29 132.04 151.36 131.51 151.36L131.52 151.58Z" fill="#D8D7D3"/>
<path d="M141.21 151.28C141.44 151.2 141.52 151.13 141.67 151.05C141.75 150.97 141.9 150.82 141.9 150.59C141.98 150.36 141.98 149.98 141.98 149.52C141.98 149.06 141.98 148.38 141.98 147.61V141.43H140.61C140.3 141.43 140 141.43 139.77 141.51C139.54 141.51 139.31 141.59 139.08 141.74C138.85 141.89 138.7 142.05 138.55 142.27C138.4 142.5 138.32 142.88 138.24 143.26H138L138.23 141.58C138.23 141.43 138.31 141.35 138.31 141.27C138.31 141.27 138.39 141.19 138.54 141.19H146.7C146.78 141.19 146.85 141.19 146.93 141.27C146.93 141.27 147.01 141.42 147.01 141.58L147.24 143.26H147C146.92 142.8 146.77 142.5 146.69 142.27C146.54 142.04 146.38 141.81 146.16 141.74C145.93 141.59 145.7 141.51 145.47 141.51C145.16 141.51 144.86 141.43 144.55 141.43H143.18V147.61C143.18 148.45 143.18 149.06 143.18 149.52C143.18 149.98 143.26 150.36 143.26 150.59C143.34 150.82 143.41 150.97 143.49 151.05C143.57 151.13 143.72 151.2 143.95 151.28V151.43H141.2L141.21 151.28Z" fill="#D8D7D3"/>
<path d="M150.28 151.2C150.51 151.12 150.59 151.05 150.74 150.97C150.82 150.89 150.97 150.74 150.97 150.51C151.05 150.28 151.05 149.9 151.05 149.44C151.05 148.98 151.05 148.3 151.05 147.53V145.01C151.05 144.17 151.05 143.56 151.05 143.1C151.05 142.64 150.97 142.26 150.97 142.03C150.89 141.8 150.82 141.65 150.74 141.5C150.66 141.42 150.51 141.35 150.28 141.27V141.12H152.8C155.24 141.12 157.07 141.5 158.29 142.34C159.51 143.18 160.12 144.4 160.12 146.08C160.12 146.84 159.97 147.61 159.66 148.22C159.35 148.83 158.9 149.44 158.36 149.9C157.75 150.36 156.99 150.74 156.07 150.97C155.15 151.2 154.09 151.35 152.79 151.35H150.27V151.2H150.28ZM152.19 151.2H152.72C153.71 151.2 154.63 151.12 155.39 150.89C156.15 150.66 156.76 150.43 157.3 149.97C157.76 149.59 158.14 149.05 158.44 148.37C158.67 147.76 158.82 146.92 158.82 146.08C158.82 145.16 158.67 144.33 158.44 143.72C158.13 143.11 157.75 142.58 157.22 142.27C156.69 141.89 156.08 141.66 155.31 141.51C154.54 141.36 153.71 141.28 152.79 141.28H152.26L152.19 151.2Z" fill="#D8D7D3"/>
<path d="M176.3 149.52H176.53L176.22 150.74C176.07 151.27 176.07 151.35 175.69 151.35H168.98L172.11 148.68C174.25 146.77 174.78 145.32 174.78 143.95C174.78 142.27 174.09 141.28 172.34 141.28C170.74 141.28 170.66 142.27 170.59 142.65C170.51 143.03 170.36 143.18 170.06 143.18C169.68 143.18 169.53 142.95 169.53 142.65C169.53 142.12 170.37 141.05 172.43 141.05C174.34 141.05 176.17 141.89 176.17 143.87C176.17 145.78 174.72 147.3 172.58 148.9L170.52 150.5H173.04C175.69 150.51 175.92 150.36 176.3 149.52Z" fill="#D8D7D3"/>
<path d="M187.89 146.24C187.89 149.37 185.53 151.5 183.54 151.5C181.48 151.5 179.12 149.36 179.12 146.24C179.12 143.11 181.48 140.98 183.54 140.98C185.61 141.05 187.97 143.19 187.89 146.24ZM180.42 146.24C180.42 149.98 182.17 151.27 183.55 151.27C185 151.27 186.68 149.97 186.68 146.24C186.68 142.5 184.93 141.21 183.55 141.21C182.17 141.21 180.42 142.5 180.42 146.24Z" fill="#D8D7D3"/>
<path d="M199.18 146.24C199.18 149.37 196.82 151.5 194.83 151.5C192.77 151.5 190.41 149.36 190.41 146.24C190.41 143.11 192.77 140.98 194.83 140.98C196.9 141.05 199.18 143.19 199.18 146.24ZM191.71 146.24C191.71 149.98 193.46 151.27 194.84 151.27C196.29 151.27 197.97 149.97 197.97 146.24C197.97 142.5 196.22 141.21 194.84 141.21C193.46 141.21 191.71 142.5 191.71 146.24Z" fill="#D8D7D3"/>
<path d="M208.19 148C208.19 146.17 207.58 145.18 205.98 145.18C205.06 145.18 204.61 145.49 204 146.1L203.85 145.95L207.74 142.14H205.91C202.78 142.14 202.71 142.22 202.4 143.06H202.17L202.55 141.76C202.7 141.3 202.7 141.23 202.93 141.23H208.96V141.38L205.07 145.19C205.38 145.04 205.76 144.96 206.14 144.96C208.28 144.96 209.57 146.03 209.57 148.01C209.57 149.61 208.04 151.52 205.15 151.52C203.17 151.52 202.02 150.45 202.02 149.69C202.02 149.46 202.17 149.16 202.48 149.16C202.86 149.16 203.01 149.39 203.09 149.69C203.17 149.92 203.24 151.29 205.15 151.29C207.35 151.28 208.19 149.83 208.19 148Z" fill="#D8D7D3"/>
<path d="M269.9 73.31C267.23 73.31 265.02 71.1 265.02 68.43C265.02 65.76 267.23 63.55 269.9 63.55C272.57 63.55 274.78 65.76 274.78 68.43C274.78 71.1 272.65 73.31 269.9 73.31ZM269.9 64C267.46 64 265.48 65.98 265.48 68.42C265.48 70.86 267.46 72.84 269.9 72.84C272.34 72.84 274.32 70.86 274.32 68.42C274.32 65.98 272.34 64 269.9 64Z" fill="#D8D7D3"/>
<path d="M267.84 71.33V65.61H270.36C270.89 65.61 271.28 65.69 271.5 65.76C271.81 65.84 271.96 66.07 272.11 66.29C272.26 66.52 272.34 66.82 272.34 67.13C272.34 67.51 272.19 67.89 271.96 68.2C271.73 68.51 271.27 68.66 270.74 68.73C270.97 68.81 271.12 68.96 271.2 69.04C271.43 69.27 271.66 69.5 271.81 69.8L272.8 71.4H271.96L271.2 70.18C270.97 69.8 270.82 69.57 270.67 69.42C270.52 69.27 270.36 69.11 270.29 69.04C270.21 68.96 270.06 68.89 269.91 68.89C269.83 68.89 269.68 68.89 269.45 68.89H268.53V71.41L267.84 71.33ZM268.61 68.12H270.21C270.59 68.12 270.82 68.12 271.05 68.04C271.28 67.96 271.43 67.89 271.51 67.66C271.59 67.51 271.66 67.35 271.66 67.13C271.66 66.82 271.58 66.67 271.35 66.44C271.12 66.29 270.82 66.21 270.43 66.21H268.6L268.61 68.12Z" fill="#D8D7D3"/>
</g>
<defs>
<clipPath id="clip0_20_43">
<rect width="325.36" height="151.58" fill="white"/>
</clipPath>
</defs>
</svg>
