<svg xmlns="http://www.w3.org/2000/svg" viewBox="0 0 406.67 198.89"><defs><style>.cls-1{fill:#d7d7d2;}</style></defs><g id="图层_2" data-name="图层 2"><g id="图层_1-2" data-name="图层 1"><path class="cls-1" d="M.23,163.21a4.88,4.88,0,0,0,1.55-.7,2.89,2.89,0,0,0,.84-1.69A22,22,0,0,0,3,157.07c0-1.64.09-3.84.09-6.65v-8.57c0-2.81,0-5,0-6.65a22,22,0,0,0-.33-3.75,2.89,2.89,0,0,0-.84-1.69,5,5,0,0,0-1.55-.7v-.42H27a1,1,0,0,1,.61.14c.14.09.23.42.32.94l.66,4.49H28a10.56,10.56,0,0,0-1.12-2.53,4.85,4.85,0,0,0-1.55-1.54,6,6,0,0,0-2.2-.8,18.13,18.13,0,0,0-3-.23h-13v14.56h5.81a6.61,6.61,0,0,0,2.39-.32,3.35,3.35,0,0,0,1.26-.85,2.49,2.49,0,0,0,.57-1.12c.09-.42.18-.84.28-1.27h.56v7.69h-.56c-.1-.42-.19-.85-.28-1.27a2.54,2.54,0,0,0-.57-1.12,3.23,3.23,0,0,0-1.26-.84,6.37,6.37,0,0,0-2.39-.33H7.07v6.13c0,2.81,0,5,.1,6.66a19.88,19.88,0,0,0,.37,3.7,2.86,2.86,0,0,0,.84,1.68,4.67,4.67,0,0,0,1.55.7v.47H.47v-.47Z"/><path class="cls-1" d="M29.33,163.26a9.75,9.75,0,0,0,1.08-.47,3.31,3.31,0,0,0,1-.89,13.73,13.73,0,0,0,1.08-1.64,24.74,24.74,0,0,0,1.27-2.67l11-26.1a4.39,4.39,0,0,0-1.4-1.82,5.49,5.49,0,0,0-1.6-.66v-.42H47a.82.82,0,0,1,.56.14,2.46,2.46,0,0,1,.37.66l12.56,28.39c.33.74.61,1.4.89,2a14.37,14.37,0,0,0,.84,1.5,5.62,5.62,0,0,0,1,1.13,6,6,0,0,0,1.35.84v.47h-8v-.47c.89-.24,1.36-.66,1.36-1.27a9.33,9.33,0,0,0-.94-3l-2.76-6.23H36.5l-2.06,4.87c-.19.47-.38,1-.56,1.55a4.85,4.85,0,0,0-.28,1.59,2.74,2.74,0,0,0,.42,1.45,2.56,2.56,0,0,0,1.5,1v.42H29.43v-.42Zm15.79-31-8.43,19.91H53.93Z"/><path class="cls-1" d="M72.25,163.35a6.35,6.35,0,0,0,1.5-.94,3.35,3.35,0,0,0,.84-1.82,21.48,21.48,0,0,0,.37-3.8c.05-1.64.1-3.84.1-6.65v-8.25c0-2.81,0-5,0-6.65a21.45,21.45,0,0,0-.33-3.7,3.14,3.14,0,0,0-.84-1.73,3.94,3.94,0,0,0-1.55-.75v-.42H78.9c.28,0,.47,0,.56.18A7.28,7.28,0,0,1,80,130l13,29.23,13.54-30.54h6.93v.42a4.82,4.82,0,0,0-1.54.7,2.78,2.78,0,0,0-.84,1.69,20.38,20.38,0,0,0-.33,3.7c0,1.64,0,3.84,0,6.65v8.57c0,2.81,0,5,.09,6.66a20.61,20.61,0,0,0,.38,3.7,2.86,2.86,0,0,0,.84,1.68,4.67,4.67,0,0,0,1.55.7v.47h-9.47v-.47a4.58,4.58,0,0,0,1.55-.7,2.75,2.75,0,0,0,.84-1.68,21.13,21.13,0,0,0,.33-3.75c0-1.64.1-3.84.1-6.65V129.57l-15.13,34.2H91L75.81,129.43V150c0,2.81,0,5,.09,6.65a18.32,18.32,0,0,0,.42,3.8,3.31,3.31,0,0,0,1,1.82,5.57,5.57,0,0,0,1.78.84v.47H72.43v-.47Z"/><path class="cls-1" d="M121.41,163.21a4.82,4.82,0,0,0,1.54-.7,2.78,2.78,0,0,0,.84-1.69,21,21,0,0,0,.33-3.75c0-1.64.1-3.84.1-6.65v-8.57c0-2.81,0-5,0-6.65a22,22,0,0,0-.33-3.75,2.89,2.89,0,0,0-.84-1.69,4.88,4.88,0,0,0-1.55-.7v-.42h9.46v.42a4.82,4.82,0,0,0-1.54.7,2.78,2.78,0,0,0-.84,1.69,20.38,20.38,0,0,0-.33,3.7c0,1.64,0,3.84,0,6.65v8.57c0,2.81,0,5,.09,6.66a20.61,20.61,0,0,0,.38,3.7,2.86,2.86,0,0,0,.84,1.68,4.67,4.67,0,0,0,1.55.7v.47h-9.47v-.47Z"/><path class="cls-1" d="M138.68,163.11a4.67,4.67,0,0,0,1.55-.7,2.86,2.86,0,0,0,.84-1.68,22.13,22.13,0,0,0,.33-3.75c0-1.64.09-3.84.09-6.65v-8.58c0-2.81,0-5,0-6.65a21.89,21.89,0,0,0-.33-3.74,2.81,2.81,0,0,0-.85-1.69,4.61,4.61,0,0,0-1.54-.7v-.43h9.6V129a4.47,4.47,0,0,0-1.59.7,2.75,2.75,0,0,0-.84,1.69,20.39,20.39,0,0,0-.38,3.7c-.05,1.64-.05,3.84-.05,6.65V163h11.67a24.24,24.24,0,0,0,2.72-.14,4.48,4.48,0,0,0,2.1-.8,5.74,5.74,0,0,0,1.64-1.82,13.92,13.92,0,0,0,1.27-3.33h.65l-.84,5.58c-.05.51-.14.84-.28.93a1.24,1.24,0,0,1-.7.14H138.92v-.47Z"/><path class="cls-1" d="M177.81,163.26a4.88,4.88,0,0,0,1.55-.71,2.86,2.86,0,0,0,.84-1.68,22.13,22.13,0,0,0,.33-3.75c0-1.64.09-3.84.09-6.65v-3.42l-8.81-12.46c-.61-.89-1.12-1.64-1.54-2.3a13.28,13.28,0,0,0-1.22-1.59,6.18,6.18,0,0,0-1.17-1,4.81,4.81,0,0,0-1.41-.66v-.42h8.9V129a1.81,1.81,0,0,0-1.45,1c-.23.51.05,1.31.84,2.43l9.33,13.26,8.1-11.2a14.32,14.32,0,0,0,2.06-3.6c.28-.89-.14-1.5-1.31-1.83v-.42h5.53v.42a7,7,0,0,0-1.08.47,7.21,7.21,0,0,0-1.12.84,16.61,16.61,0,0,0-1.46,1.55,28.9,28.9,0,0,0-1.87,2.53l-8.43,11.8v4.12c0,2.81,0,5,.09,6.66a20.61,20.61,0,0,0,.38,3.7,2.8,2.8,0,0,0,.84,1.68,4.58,4.58,0,0,0,1.55.7v.47H178v-.47Z"/><path class="cls-1" d="M232.9,163.21a4.88,4.88,0,0,0,1.55-.7,2.89,2.89,0,0,0,.84-1.69,22,22,0,0,0,.33-3.75c0-1.64.09-3.84.09-6.65V129.15h-4.78a29.5,29.5,0,0,0-3,.14,5.94,5.94,0,0,0-2.39.8,5.36,5.36,0,0,0-1.82,1.87,10.64,10.64,0,0,0-1.17,3.47h-.71l.8-5.71a2.1,2.1,0,0,1,.23-1,1.09,1.09,0,0,1,.66-.14h28a1.07,1.07,0,0,1,.66.14,2,2,0,0,1,.23,1l.85,5.71h-.71a10.64,10.64,0,0,0-1.17-3.47,5.53,5.53,0,0,0-1.82-1.92,5.76,5.76,0,0,0-2.44-.79,29.48,29.48,0,0,0-3.09-.14h-4.64v21.26c0,2.81,0,5,.09,6.66a20.61,20.61,0,0,0,.38,3.7,2.86,2.86,0,0,0,.84,1.68,4.67,4.67,0,0,0,1.55.7v.47h-9.46v-.47Z"/><path class="cls-1" d="M260.43,163.16a4.82,4.82,0,0,0,1.54-.7,2.81,2.81,0,0,0,.85-1.69,22.2,22.2,0,0,0,.32-3.74c.05-1.64.1-3.85.1-6.66V141.8c0-2.81,0-5-.05-6.65a22,22,0,0,0-.33-3.75,2.86,2.86,0,0,0-.84-1.68,4.67,4.67,0,0,0-1.55-.71v-.42h14.76a31.29,31.29,0,0,1,6.89.66,15.07,15.07,0,0,1,4.63,1.78,6.84,6.84,0,0,1,2.63,2.67,7.44,7.44,0,0,1,.79,3.32,7.18,7.18,0,0,1-1.12,4.08,9.12,9.12,0,0,1-3,2.81,15.11,15.11,0,0,1-4.26,1.69,21.82,21.82,0,0,1-5,.56h-2.39a9.16,9.16,0,0,1,5.16,2.53,11.88,11.88,0,0,1,3,5.52,16.42,16.42,0,0,0,2.76,6.38,5.59,5.59,0,0,0,4.59,2.24,4.12,4.12,0,0,0,2.06-.42,5.6,5.6,0,0,0,1.27-1.07l.28.32a5.67,5.67,0,0,1-1.83,1.64,6.11,6.11,0,0,1-3.14.71,12.48,12.48,0,0,1-2.85-.38,7.55,7.55,0,0,1-2.81-1.36,10.09,10.09,0,0,1-2.44-2.67,14.58,14.58,0,0,1-1.83-4.45c-.56-2.2-1-3.93-1.45-5.15a7,7,0,0,0-1.45-2.67,3.83,3.83,0,0,0-2.11-1.08,22.81,22.81,0,0,0-3.47-.19h-2.81v4.31c0,2.81.05,5,.1,6.66a19.88,19.88,0,0,0,.37,3.7,2.86,2.86,0,0,0,.84,1.68,4.67,4.67,0,0,0,1.55.7v.47h-9.46v-.47Zm6.6-17.61h9.7c3.23,0,5.62-.7,7.17-2.06a7.3,7.3,0,0,0,2.34-5.76,12,12,0,0,0-.47-3.52,5.82,5.82,0,0,0-1.73-2.72,9.12,9.12,0,0,0-3.47-1.77,20.21,20.21,0,0,0-5.62-.66h-7.87Z"/><path class="cls-1" d="M315.9,163.91c-5,0-8.9-1.12-11.61-3.37s-4.08-5.81-4.08-10.63v-8.34c0-2.81,0-5,0-6.66a22.2,22.2,0,0,0-.32-3.74,2.81,2.81,0,0,0-.85-1.69,4.66,4.66,0,0,0-1.45-.7v-.42h9.32v.42a4.82,4.82,0,0,0-1.54.7,2.81,2.81,0,0,0-.85,1.69,21.55,21.55,0,0,0-.32,3.7c0,1.64,0,3.84,0,6.65v9.28a22.25,22.25,0,0,0,.56,5.19,9.75,9.75,0,0,0,1.92,3.94,8.41,8.41,0,0,0,3.61,2.44,16.59,16.59,0,0,0,5.71.84,18.18,18.18,0,0,0,4.92-.66,9.54,9.54,0,0,0,3.89-2.1,9.91,9.91,0,0,0,2.53-3.94,17.86,17.86,0,0,0,.94-6.18V142c0-2.86,0-5.11-.05-6.75a22.16,22.16,0,0,0-.38-3.79,3,3,0,0,0-.93-1.83,7.09,7.09,0,0,0-1.78-.94v-.42h6.65v.42a6.09,6.09,0,0,0-1.55.94,3.39,3.39,0,0,0-.84,1.83,23.13,23.13,0,0,0-.33,3.79c0,1.64,0,3.89,0,6.75v8.34a18.28,18.28,0,0,1-1,6.46,11.16,11.16,0,0,1-2.67,4.22,9.79,9.79,0,0,1-4.07,2.29,18.36,18.36,0,0,1-5.2.71Z"/><path class="cls-1" d="M352.3,164.24a17.92,17.92,0,0,1-4.26-.42,20,20,0,0,1-2.86-.94c-.8-.33-1.5-.65-2.11-.94a4.64,4.64,0,0,0-2-.42,1.34,1.34,0,0,0-1.35,1h-.66v-7.82h.66a10,10,0,0,0,1.4,3.7,9.42,9.42,0,0,0,2.67,2.81,12.83,12.83,0,0,0,3.8,1.78,16.66,16.66,0,0,0,4.68.61,12.3,12.3,0,0,0,4.22-.66,7.57,7.57,0,0,0,2.81-1.68,6.6,6.6,0,0,0,1.54-2.48,9.21,9.21,0,0,0,.52-3.05,7.65,7.65,0,0,0-.56-3.09,6,6,0,0,0-1.83-2.25,14.11,14.11,0,0,0-3.37-1.83c-1.41-.56-3.14-1.17-5.2-1.78a37.32,37.32,0,0,1-4.36-1.54,14.47,14.47,0,0,1-3.28-1.92,7.24,7.24,0,0,1-2.06-2.53,8.05,8.05,0,0,1-.7-3.47,7.88,7.88,0,0,1,.93-3.84,9,9,0,0,1,2.44-2.86,11.72,11.72,0,0,1,3.51-1.83,13.66,13.66,0,0,1,4.17-.6,21.57,21.57,0,0,1,3.84.28,13.75,13.75,0,0,1,2.63.7c.7.28,1.31.52,1.82.7a4.46,4.46,0,0,0,1.55.28,1.31,1.31,0,0,0,1.45-1H363v6.14h-.61a7.91,7.91,0,0,0-3.93-4.92,15.06,15.06,0,0,0-7.45-1.69,9.78,9.78,0,0,0-6,1.69,5.47,5.47,0,0,0-2.25,4.64,7.12,7.12,0,0,0,.42,2.52,5,5,0,0,0,1.45,2,10.73,10.73,0,0,0,2.86,1.69,38,38,0,0,0,4.64,1.54c1.68.47,3.27,1,4.77,1.5a15.61,15.61,0,0,1,3.94,2,9.08,9.08,0,0,1,2.67,2.86,8.05,8.05,0,0,1,1,4.12,10.33,10.33,0,0,1-.84,4.12,9.68,9.68,0,0,1-2.44,3.42,11.57,11.57,0,0,1-3.84,2.29,14.13,14.13,0,0,1-5.06.85Z"/><path class="cls-1" d="M382.71,163.21a4.71,4.71,0,0,0,1.54-.7,2.84,2.84,0,0,0,.85-1.69,22,22,0,0,0,.33-3.75c0-1.64.09-3.84.09-6.65V129.15h-4.78a29.35,29.35,0,0,0-2.95.14,5.89,5.89,0,0,0-2.39.8,5.47,5.47,0,0,0-1.83,1.87,10.88,10.88,0,0,0-1.17,3.47h-.7l.8-5.71a2,2,0,0,1,.23-1,1.09,1.09,0,0,1,.66-.14h28a1.09,1.09,0,0,1,.66.14,2.1,2.1,0,0,1,.23,1l.84,5.71h-.7a10.88,10.88,0,0,0-1.17-3.47,5.56,5.56,0,0,0-1.83-1.92,5.72,5.72,0,0,0-2.43-.79,29.48,29.48,0,0,0-3.09-.14h-4.64v21.26c0,2.81,0,5,.09,6.66a20.61,20.61,0,0,0,.38,3.7,2.75,2.75,0,0,0,.84,1.68,4.61,4.61,0,0,0,1.54.7v.47h-9.46v-.47Z"/><path class="cls-1" d="M131.19,6.69A38.74,38.74,0,0,0,120.12,3a73.22,73.22,0,0,0-13.56-1.13H74.7v1a11.71,11.71,0,0,1,3.73,1.69q1.35,1,2,4.07a53.15,53.15,0,0,1,.79,9c.11,4,.11,9.26.11,16V54.37c0,6.78-.11,12.09-.22,16a54,54,0,0,1-.79,9q-.67,3-2,4.07a11.3,11.3,0,0,1-3.73,1.69h.12v1.13H97.86V85.21a11.8,11.8,0,0,1-4-1.69q-1.35-1-2-4.07a49.32,49.32,0,0,1-.9-8.92c-.12-4-.23-9.27-.23-16.05v-7H107a62,62,0,0,0,13.22-1.36,32.78,32.78,0,0,0,11-4.4,22.85,22.85,0,0,0,7.46-7.57,20.43,20.43,0,0,0,2.71-10.62,18,18,0,0,0-2.71-10.17A20.49,20.49,0,0,0,131.19,6.69Zm-1.58,28.59a17.53,17.53,0,0,1-5.77,6.66,21.72,21.72,0,0,1-8.13,3.28,50.9,50.9,0,0,1-9.26.9H90.52L90.63,3h15.7a62.61,62.61,0,0,1,9.15.68,21.07,21.07,0,0,1,8.14,2.83,17.05,17.05,0,0,1,5.87,6.44q2.38,4.23,2.38,11.52A23.42,23.42,0,0,1,129.61,35.28Z"/><path class="cls-1" d="M330.5,71.54a31.51,31.51,0,0,1-2.71,7.35A10.93,10.93,0,0,1,324.06,83a12.28,12.28,0,0,1-5.08,1.7,57.47,57.47,0,0,1-6.55.34H280V39.91h12.88a15.51,15.51,0,0,1,5.76.79,7.84,7.84,0,0,1,3.05,2,6.21,6.21,0,0,1,1.36,2.71c.22,1,.45,2,.68,3.05h1.35V30h-1.35c-.23,1-.46,2-.68,3.05a6.21,6.21,0,0,1-1.36,2.71,7.84,7.84,0,0,1-3.05,2,15.51,15.51,0,0,1-5.76.79H280V3h30.28a33.12,33.12,0,0,1,6.21.57,12.67,12.67,0,0,1,4.75,1.92A14.5,14.5,0,0,1,325,9.18a25.64,25.64,0,0,1,3,6.1h1.47L327.57,4.54a4,4,0,0,0-.91-2.37,3,3,0,0,0-1.58-.34H263.84v1a9.48,9.48,0,0,1,3.73,1.81,7.59,7.59,0,0,1,2,4.18,52.43,52.43,0,0,1,.79,8.92c.11,4,.11,9.27.11,16.05V54.48c0,6.78-.11,12.09-.23,16.05a52.91,52.91,0,0,1-.79,9c-.45,2-1.13,3.39-2,4.07a11.6,11.6,0,0,1-3.73,1.7l.45-.12v1.13h64.06a3.16,3.16,0,0,0,1.7-.34c.34-.22.56-1,.68-2.26l1.46-12.2Z"/><path class="cls-1" d="M252.29,30.49H204.6l-7.42,8.45h17.41c9.59,1.75,22.19,7.36,22.06,24.81,0,0,1.21,22.28-11.49,22.28,0,0-7.76,1-13-8.07s-27.72-51.72-27.72-51.72-3.83-9.77,2-18.44,17.34-6.15,20.36-4.44,9.07,8.77,1.21,19.76l1.55.67,12.7-15S214.54,0,198.61,0s-24.33,10.55-24.39,22.25c0,0-.27,5.1,3.76,11.82,1,1.63,2,3.56,3.09,5.55a25.68,25.68,0,0,0-5.78-.68c-5.71,0-25.74,4.12-24.93,26.65s21.71,23.19,25.47,23.19,9.74-.94,12.77-3.36l-1.68-1a19.8,19.8,0,0,1-8.6,1.75c-7.26,0-19-10.42-20.23-23.32s5.1-22.11,16.12-22.11c4,0,8.13,3.8,11.76,8.64,1,2,1.62,3.39,1.62,3.39L201.91,78.7s4.5,9.48,18.14,9.48,26.75-8.54,26.75-20.37c0-11.15-5.45-20.87-26.12-28.87h24.2Z"/><path class="cls-1" d="M141.91,198.48a1.71,1.71,0,0,0,.59-.27,1,1,0,0,0,.33-.64,8,8,0,0,0,.12-1.44c0-.63,0-1.47,0-2.54V190.3c0-1.07,0-1.91,0-2.54a8.7,8.7,0,0,0-.12-1.42,1.2,1.2,0,0,0-.33-.66,1.42,1.42,0,0,0-.59-.29v-.16h9.72a.52.52,0,0,1,.25.05.67.67,0,0,1,.14.38l.31,1.7h-.24a3.9,3.9,0,0,0-.48-1,2.41,2.41,0,0,0-.59-.6,2.07,2.07,0,0,0-.75-.3,5.67,5.67,0,0,0-1-.09h-4.81v5.65h2a2.44,2.44,0,0,0,.91-.13,1.34,1.34,0,0,0,.49-.32,1,1,0,0,0,.21-.43c0-.16.07-.32.11-.49h.22v2.95h-.22l-.11-.49a1,1,0,0,0-.21-.43,1.34,1.34,0,0,0-.49-.32,2.44,2.44,0,0,0-.91-.13h-2v7.16h5.15a8,8,0,0,0,1-.06,1.85,1.85,0,0,0,.81-.27,1.75,1.75,0,0,0,.59-.64,5.29,5.29,0,0,0,.43-1.17h.25l-.23,1.94a.59.59,0,0,1-.11.36.56.56,0,0,1-.27,0H142v-.18Z"/><path class="cls-1" d="M162.34,198.89a6.73,6.73,0,0,1-1.63-.16,7.9,7.9,0,0,1-1.1-.36c-.3-.12-.57-.25-.8-.36a2,2,0,0,0-.76-.16.52.52,0,0,0-.52.4h-.25v-3h.25a3.88,3.88,0,0,0,.54,1.42,3.59,3.59,0,0,0,1,1.07,5.19,5.19,0,0,0,1.46.69,6.36,6.36,0,0,0,1.79.23,4.78,4.78,0,0,0,1.61-.25,2.86,2.86,0,0,0,1.08-.65,2.54,2.54,0,0,0,.59-.95,3.67,3.67,0,0,0,.2-1.16,3,3,0,0,0-.22-1.19,2.17,2.17,0,0,0-.7-.86,5.45,5.45,0,0,0-1.29-.7c-.54-.21-1.2-.44-2-.68a14.72,14.72,0,0,1-1.67-.59,5.64,5.64,0,0,1-1.25-.73,2.82,2.82,0,0,1-.79-1,3.29,3.29,0,0,1,.09-2.8,3.36,3.36,0,0,1,.93-1.09,4.23,4.23,0,0,1,1.35-.7,5.23,5.23,0,0,1,1.59-.24,8.48,8.48,0,0,1,1.47.11,5,5,0,0,1,1,.27l.7.27a1.71,1.71,0,0,0,.59.11.5.5,0,0,0,.55-.38h.24v2.35h-.24a3,3,0,0,0-1.5-1.88,5.77,5.77,0,0,0-2.85-.65,3.8,3.8,0,0,0-2.32.65,2.1,2.1,0,0,0-.86,1.77,2.94,2.94,0,0,0,.16,1,1.86,1.86,0,0,0,.56.77,4.35,4.35,0,0,0,1.09.65,16.8,16.8,0,0,0,1.78.59c.64.18,1.25.38,1.83.57a5.86,5.86,0,0,1,1.5.76,3.56,3.56,0,0,1,1,1.09,3.08,3.08,0,0,1,.37,1.58,4,4,0,0,1-.32,1.57,3.69,3.69,0,0,1-.93,1.31,4.43,4.43,0,0,1-1.47.88,5.41,5.41,0,0,1-1.94.32Z"/><path class="cls-1" d="M175.18,198.5a1.71,1.71,0,0,0,.59-.27,1,1,0,0,0,.32-.65,7.65,7.65,0,0,0,.13-1.43c0-.63,0-1.47,0-2.55v-8.14h-1.83a9.64,9.64,0,0,0-1.13.06,2.17,2.17,0,0,0-.92.3,2.1,2.1,0,0,0-.7.72,4.05,4.05,0,0,0-.44,1.33H171l.3-2.19a.9.9,0,0,1,.09-.38.47.47,0,0,1,.25-.05h10.72a.42.42,0,0,1,.25.05.66.66,0,0,1,.09.38l.33,2.19h-.27a4,4,0,0,0-.45-1.33,2,2,0,0,0-1.63-1,10.82,10.82,0,0,0-1.18-.05h-1.78v8.14c0,1.07,0,1.91,0,2.54a7.45,7.45,0,0,0,.14,1.42,1.06,1.06,0,0,0,.32.64,1.8,1.8,0,0,0,.59.27v.18h-3.62v-.18Z"/><path class="cls-1" d="M187,198.48a1.77,1.77,0,0,0,.6-.27,1.09,1.09,0,0,0,.32-.64,8,8,0,0,0,.12-1.44c0-.63,0-1.47,0-2.54V190.3c0-1.07,0-1.91,0-2.54a8.7,8.7,0,0,0-.12-1.42,1.2,1.2,0,0,0-.33-.66,1.42,1.42,0,0,0-.59-.29v-.16h3.28c3.18,0,5.56.54,7.16,1.63a5.58,5.58,0,0,1,2.4,4.9,6.69,6.69,0,0,1-.56,2.79,5.48,5.48,0,0,1-1.74,2.17,8.55,8.55,0,0,1-3,1.42,16,16,0,0,1-4.3.5H187v-.16Zm2.5,0h.73a14.68,14.68,0,0,0,3.53-.38,6.23,6.23,0,0,0,2.48-1.18,5,5,0,0,0,1.45-2.08,8.68,8.68,0,0,0,.48-3,7.76,7.76,0,0,0-.53-3.07,4.65,4.65,0,0,0-1.56-1.93,6.43,6.43,0,0,0-2.5-1,17.4,17.4,0,0,0-3.29-.28h-.74Z"/><path class="cls-1" d="M216.73,197.57c.94,0,1.67,0,2.21,0a5.41,5.41,0,0,0,1.27-.16,1.26,1.26,0,0,0,.65-.38,2.24,2.24,0,0,0,.32-.64h.23L221,198c-.06.16-.09.28-.13.37a1.12,1.12,0,0,1-.11.22.3.3,0,0,1-.14.11.68.68,0,0,1-.22,0h-8.76l4.1-3.57a14.58,14.58,0,0,0,1.76-1.78,8.77,8.77,0,0,0,1.06-1.59,6.91,6.91,0,0,0,.54-1.49,7,7,0,0,0,.16-1.42,5.63,5.63,0,0,0-.18-1.49,3.11,3.11,0,0,0-.59-1.11,2.62,2.62,0,0,0-1-.7,4,4,0,0,0-1.47-.25,3,3,0,0,0-1.27.22,1.94,1.94,0,0,0-.7.52,1.5,1.5,0,0,0-.32.59,4,4,0,0,0-.11.45c-.09.45-.32.66-.72.66a.69.69,0,0,1-.53-.2.61.61,0,0,1-.18-.48,1.2,1.2,0,0,1,.21-.59,2.55,2.55,0,0,1,.68-.67,4.12,4.12,0,0,1,1.19-.53,6,6,0,0,1,1.77-.22,7.44,7.44,0,0,1,1.85.22,4.57,4.57,0,0,1,1.56.66,3.37,3.37,0,0,1,1.07,1.15,3.15,3.15,0,0,1,.4,1.63,4.71,4.71,0,0,1-.34,1.79,7.47,7.47,0,0,1-1,1.67,11.07,11.07,0,0,1-1.51,1.58c-.59.52-1.23,1-1.93,1.57l-2.84,2.16h3.46Z"/><path class="cls-1" d="M231.42,185.05a4.5,4.5,0,0,1,2,.5,6.27,6.27,0,0,1,1.86,1.42,7.57,7.57,0,0,1,1.37,2.17,7.63,7.63,0,0,1,0,5.59,7.44,7.44,0,0,1-1.37,2.17,6.27,6.27,0,0,1-1.86,1.42,4.31,4.31,0,0,1-4,0,6.11,6.11,0,0,1-1.85-1.42,7.39,7.39,0,0,1-1.36-2.18,7.53,7.53,0,0,1,0-5.6,7.34,7.34,0,0,1,1.36-2.17,6.24,6.24,0,0,1,1.86-1.41,4.42,4.42,0,0,1,2-.51Zm0,.23a3.26,3.26,0,0,0-1.4.34,4,4,0,0,0-1.34,1.13,6.34,6.34,0,0,0-1,2.05,12.67,12.67,0,0,0,0,6.24,6.28,6.28,0,0,0,1,2,3.76,3.76,0,0,0,1.36,1.13,3.42,3.42,0,0,0,1.43.34,3.26,3.26,0,0,0,1.44-.36,3.65,3.65,0,0,0,1.32-1.13,6.69,6.69,0,0,0,1-2,12.67,12.67,0,0,0,0-6.24,6.48,6.48,0,0,0-1-2,3.9,3.9,0,0,0-1.35-1.13,3.1,3.1,0,0,0-1.4-.34Z"/><path class="cls-1" d="M241.68,198.5a3.3,3.3,0,0,0,.86-.25,1.06,1.06,0,0,0,.49-.65,5.85,5.85,0,0,0,.21-1.4c0-.61.06-1.47.06-2.56v-3.16c0-.77,0-1.36,0-1.79a2.69,2.69,0,0,0-.16-.93.49.49,0,0,0-.45-.32,5.27,5.27,0,0,0-.88,0v-.18l3-2.27v8.62c0,1.1,0,1.94,0,2.55a5.85,5.85,0,0,0,.16,1.4,1,1,0,0,0,.43.64,2.47,2.47,0,0,0,.84.25v.18h-4.54Z"/><path class="cls-1" d="M255.31,197.57c.93,0,1.67,0,2.21,0a5.57,5.57,0,0,0,1.27-.16,1.23,1.23,0,0,0,.64-.38,2,2,0,0,0,.33-.64H260l-.45,1.63-.12.37a1.12,1.12,0,0,1-.11.22.36.36,0,0,1-.14.11.72.72,0,0,1-.22,0h-8.77l4.11-3.57a14.58,14.58,0,0,0,1.76-1.78,8.68,8.68,0,0,0,1.05-1.59,6.41,6.41,0,0,0,.7-2.91,5.25,5.25,0,0,0-.18-1.49,2.82,2.82,0,0,0-.59-1.11,2.66,2.66,0,0,0-1-.7,4,4,0,0,0-1.47-.25,2.93,2.93,0,0,0-1.27.22,1.86,1.86,0,0,0-.7.52,1.5,1.5,0,0,0-.32.59,4,4,0,0,0-.11.45c-.09.45-.32.66-.72.66a.73.73,0,0,1-.54-.2.65.65,0,0,1-.18-.48,1.24,1.24,0,0,1,.22-.59,2.28,2.28,0,0,1,.68-.67,4.18,4.18,0,0,1,1.18-.53,6.13,6.13,0,0,1,1.78-.22,7.56,7.56,0,0,1,1.85.22,4.43,4.43,0,0,1,1.55.66,3.4,3.4,0,0,1,1.08,1.15,3.15,3.15,0,0,1,.39,1.63,4.53,4.53,0,0,1-.34,1.79,7.06,7.06,0,0,1-1,1.67,11.66,11.66,0,0,1-1.51,1.58c-.59.52-1.24,1-1.94,1.57l-2.83,2.16h3.46Z"/><rect class="cls-1" y="191.99" width="127.44" height="0.5"/><rect class="cls-1" x="279.23" y="191.99" width="127.44" height="0.5"/><path class="cls-1" d="M344.08,96.17a6.4,6.4,0,1,1,6.4-6.4A6.41,6.41,0,0,1,344.08,96.17Zm0-12.21a5.81,5.81,0,1,0,5.81,5.81A5.82,5.82,0,0,0,344.08,84Z"/><path class="cls-1" d="M341.31,93.55V86h3.35a4.34,4.34,0,0,1,1.53.2,1.72,1.72,0,0,1,.84.72,2.12,2.12,0,0,1,.31,1.14,1.89,1.89,0,0,1-.52,1.35,2.59,2.59,0,0,1-1.6.7,2.6,2.6,0,0,1,.6.38,5.31,5.31,0,0,1,.83,1L348,93.55h-1.25l-1-1.57c-.3-.46-.54-.8-.73-1a2.2,2.2,0,0,0-.5-.51,1.43,1.43,0,0,0-.46-.2,3.25,3.25,0,0,0-.55,0h-1.16v3.36Zm1-4.22h2.14a3.4,3.4,0,0,0,1.08-.14,1.17,1.17,0,0,0,.58-.46,1.15,1.15,0,0,0,.2-.67,1.12,1.12,0,0,0-.39-.88,1.78,1.78,0,0,0-1.22-.35h-2.39Z"/></g></g></svg>