<svg width="1712" height="233" viewBox="0 0 1712 233" fill="none" xmlns="http://www.w3.org/2000/svg">
<path d="M58.518 177.3C58.518 213.6 59.218 218.1 81.318 220.5L90.618 221.5C92.718 223.2 92.018 229.1 89.918 230.1C70.218 229.4 58.818 229.1 45.018 229.1C30.518 229.1 18.118 229.4 2.918 230.1C0.818002 229.1 0.118021 223.5 2.21802 221.5L9.51801 220.5C29.518 217.7 30.218 213.6 30.218 177.3V49.8C30.218 20.4 29.518 14.6 14.018 12.8L1.61801 11.4C-0.781986 9.30002 -0.482004 4.09999 2.318 2.79999C20.618 0.399988 42.018 0 70.718 0C99.418 0 120.818 3.79999 137.018 13.8C152.918 23.8 164.618 41.8 164.618 65.6C164.618 97.4 144.918 113.3 130.118 120.5C114.918 127.8 96.618 130.9 82.418 130.9C80.018 129.9 80.018 124.7 82.118 124C119.418 117.1 132.918 96 132.918 66C132.918 32.5 113.218 10.7 77.318 10.7C59.018 10.7 58.618 12.1 58.618 23.1V177.3H58.518Z" fill="white"/>
<path d="M388.618 53.3C388.618 20.5 387.618 14.6 373.418 12.9L362.318 11.5C359.918 9.8 359.918 4.20002 362.618 2.90002C381.918 1.20002 405.818 0.0999756 439.618 0.0999756C461.018 0.0999756 481.418 1.8 497.318 10.5C513.918 19.1 526.018 34.7 526.018 58.9C526.018 91.7 500.118 109.7 482.818 116.6C481.118 118.7 482.818 122.1 484.518 124.9C512.118 169.5 530.418 197.1 553.918 216.8C559.818 222 568.418 225.8 577.718 226.5C579.418 227.2 579.818 230 578.018 231.3C574.918 232.3 569.418 233 562.818 233C533.418 233 515.818 224.4 491.318 189.5C482.318 176.7 468.218 152.9 457.418 137.3C452.218 129.7 446.718 126.2 432.918 126.2C417.418 126.2 416.718 126.5 416.718 133.8V177.3C416.718 213.6 417.418 217.7 437.418 220.5L444.718 221.5C446.818 223.2 446.118 229.1 444.018 230.1C428.518 229.4 416.718 229.1 402.918 229.1C388.418 229.1 376.018 229.4 359.718 230.1C357.618 229.1 356.918 223.9 359.018 221.5L367.618 220.5C387.618 218.1 388.318 213.6 388.318 177.3V53.3H388.618ZM417.018 102.7C417.018 108.9 417.018 112.7 418.018 114.1C419.018 115.1 424.218 115.8 441.818 115.8C454.218 115.8 467.418 114.4 477.418 106.8C486.718 99.5 494.718 87.5 494.718 64C494.718 36.7 477.818 10.8 439.418 10.8C418.018 10.8 416.918 12.2 416.918 21.9V102.7H417.018Z" fill="white"/>
<path d="M779.018 52.9C779.018 17 778.318 11.8 757.918 9.40002L752.418 8.70001C750.318 7.30001 751.018 1.09998 753.118 0.0999756C768.018 0.799976 779.718 1.09998 793.918 1.09998H858.818C880.918 1.09998 901.318 1.09998 905.418 0.0999756C907.518 5.99998 909.518 30.8 910.918 46C909.518 48.1 904.018 48.8 902.318 46.7C897.118 30.5 894.018 18.4 876.018 13.9C868.718 12.2 857.718 11.8 842.518 11.8H817.618C807.218 11.8 807.218 12.5 807.218 25.6V94.7C807.218 104.4 808.218 104.4 818.618 104.4H838.618C853.118 104.4 863.818 103.7 868.018 102.3C872.118 100.9 874.618 98.8 876.318 90.2L879.118 76C880.818 73.9 886.718 73.9 888.118 76.3C888.118 84.6 886.718 98.1 886.718 111.2C886.718 123.6 888.118 136.8 888.118 144.4C886.718 146.8 880.818 146.8 879.118 144.7L876.018 131.2C874.618 125 872.218 119.8 865.318 118.1C860.518 116.7 852.218 116.4 838.718 116.4H818.718C808.318 116.4 807.318 116.7 807.318 125.7V174.4C807.318 192.7 808.318 204.5 813.918 210.3C818.018 214.4 825.318 218.2 855.718 218.2C882.318 218.2 892.318 216.8 899.918 213C906.118 209.5 915.418 197.5 924.418 179.5C926.818 177.8 931.718 178.8 933.018 181.9C930.618 194 921.918 220.6 917.518 229.9C886.418 229.2 855.718 228.9 824.918 228.9H793.818C778.918 228.9 767.218 229.2 746.818 229.9C744.718 228.9 744.018 223.3 746.118 221.3L757.518 220.3C777.218 218.6 778.918 213.4 778.918 177.1V52.9H779.018Z" fill="white"/>
<path d="M1150.12 52.9C1150.12 17 1149.42 11.8 1129.02 9.40002L1123.52 8.70001C1121.42 7.30001 1122.12 1.09998 1124.22 0.0999756C1139.12 0.799976 1150.82 1.09998 1165.02 1.09998H1229.92C1252.02 1.09998 1272.42 1.09998 1276.52 0.0999756C1278.62 5.99998 1280.62 30.8 1282.02 46C1280.62 48.1 1275.12 48.8 1273.42 46.7C1268.22 30.5 1265.12 18.4 1247.12 13.9C1239.82 12.2 1228.82 11.8 1213.62 11.8H1188.72C1178.32 11.8 1178.32 12.5 1178.32 25.6V94.7C1178.32 104.4 1179.32 104.4 1189.72 104.4H1209.72C1224.22 104.4 1234.92 103.7 1239.12 102.3C1243.22 100.9 1245.72 98.8 1247.42 90.2L1250.22 76C1251.92 73.9 1257.82 73.9 1259.22 76.3C1259.22 84.6 1257.82 98.1 1257.82 111.2C1257.82 123.6 1259.22 136.8 1259.22 144.4C1257.82 146.8 1251.92 146.8 1250.22 144.7L1247.12 131.2C1245.72 125 1243.32 119.8 1236.42 118.1C1231.62 116.7 1223.32 116.4 1209.82 116.4H1189.82C1179.42 116.4 1178.42 116.7 1178.42 125.7V174.4C1178.42 192.7 1179.42 204.5 1185.02 210.3C1189.12 214.4 1196.42 218.2 1226.82 218.2C1253.42 218.2 1263.42 216.8 1271.02 213C1277.22 209.5 1286.52 197.5 1295.52 179.5C1297.92 177.8 1302.82 178.8 1304.12 181.9C1301.72 194 1293.02 220.6 1288.62 229.9C1257.52 229.2 1226.82 228.9 1196.02 228.9H1165.02C1150.12 228.9 1138.42 229.2 1118.02 229.9C1115.92 228.9 1115.22 223.3 1117.32 221.3L1128.72 220.3C1148.42 218.6 1150.12 213.4 1150.12 177.1V52.9Z" fill="white"/>
<path d="M1521.32 53.3C1521.32 20.5 1520.32 14.6 1506.12 12.9L1495.02 11.5C1492.62 9.8 1492.62 4.20002 1495.32 2.90002C1514.62 1.20002 1538.52 0.0999756 1572.32 0.0999756C1593.72 0.0999756 1614.12 1.8 1630.02 10.5C1646.62 19.1 1658.72 34.7 1658.72 58.9C1658.72 91.7 1632.82 109.7 1615.52 116.6C1613.82 118.7 1615.52 122.1 1617.22 124.9C1644.82 169.5 1663.12 197.1 1686.62 216.8C1692.52 222 1701.12 225.8 1710.42 226.5C1712.12 227.2 1712.52 230 1710.72 231.3C1707.62 232.3 1702.12 233 1695.52 233C1666.12 233 1648.52 224.4 1624.02 189.5C1615.02 176.7 1600.92 152.9 1590.12 137.3C1584.92 129.7 1579.42 126.2 1565.62 126.2C1550.12 126.2 1549.42 126.5 1549.42 133.8V177.3C1549.42 213.6 1550.12 217.7 1570.12 220.5L1577.42 221.5C1579.52 223.2 1578.82 229.1 1576.72 230.1C1561.22 229.4 1549.42 229.1 1535.62 229.1C1521.12 229.1 1508.72 229.4 1492.42 230.1C1490.32 229.1 1489.62 223.9 1491.72 221.5L1500.32 220.5C1520.32 218.1 1521.02 213.6 1521.02 177.3V53.3H1521.32ZM1549.62 102.7C1549.62 108.9 1549.62 112.7 1550.62 114.1C1551.62 115.1 1556.82 115.8 1574.42 115.8C1586.82 115.8 1600.02 114.4 1610.02 106.8C1619.32 99.5 1627.32 87.5 1627.32 64C1627.32 36.7 1610.42 10.8 1572.02 10.8C1550.62 10.8 1549.52 12.2 1549.52 21.9V102.7H1549.62Z" fill="white"/>
</svg>
