<svg width="24" height="24" viewBox="0 0 24 24" fill="none" xmlns="http://www.w3.org/2000/svg">
<g clip-path="url(#clip0_7_26)">
<path d="M17.1909 4.15501H15.5229C15.2665 4.15391 15.0177 4.24245 14.8196 4.4053C14.6216 4.56816 14.4866 4.7951 14.4381 5.04691C14.3896 5.29872 14.4306 5.55956 14.554 5.78436C14.6774 6.00915 14.8754 6.18376 15.1139 6.27801L16.8069 6.95501C17.0446 7.04963 17.2419 7.22412 17.3648 7.44846C17.4877 7.67281 17.5286 7.93298 17.4804 8.18422C17.4322 8.43545 17.298 8.66203 17.1008 8.82498C16.9036 8.98793 16.6557 9.07705 16.3999 9.07701H14.7299M15.9609 4.15501V2.96301M15.9609 10.141V9.07701" stroke="#D8D7D3" stroke-width="1.5" stroke-linecap="round" stroke-linejoin="round"/>
<path d="M15.2 17.42L21.417 15.434L21.46 15.422C21.8097 15.3454 22.1754 15.3986 22.4887 15.5718C22.802 15.745 23.0416 16.0263 23.1627 16.3632C23.2838 16.7001 23.2782 17.0695 23.1469 17.4026C23.0155 17.7356 22.7675 18.0095 22.449 18.173C10.312 24.457 13.408 24.173 0.749023 19.956M10.321 6.61601C10.321 8.11183 10.9152 9.54639 11.9729 10.6041C13.0306 11.6618 14.4652 12.256 15.961 12.256C17.4568 12.256 18.8914 11.6618 19.9491 10.6041C21.0068 9.54639 21.601 8.11183 21.601 6.61601C21.601 5.12019 21.0068 3.68564 19.9491 2.62793C18.8914 1.57023 17.4568 0.976013 15.961 0.976013C14.4652 0.976013 13.0306 1.57023 11.9729 2.62793C10.9152 3.68564 10.321 5.12019 10.321 6.61601Z" stroke="#D8D7D3" stroke-width="1.5" stroke-linecap="round" stroke-linejoin="round"/>
<path d="M0.75 12.256H2.95C5.50708 12.2301 7.98764 13.1277 9.936 14.784L9.977 14.82H14.077C14.4861 14.8189 14.8789 14.9804 15.1689 15.269C15.4589 15.5575 15.6224 15.9494 15.6235 16.3585C15.6246 16.7676 15.4631 17.1604 15.1745 17.4504C14.886 17.7404 14.4941 17.9039 14.085 17.905L7.851 17.936" stroke="#D8D7D3" stroke-width="1.5" stroke-linecap="round" stroke-linejoin="round"/>
</g>
<defs>
<clipPath id="clip0_7_26">
<rect width="24" height="24" fill="white"/>
</clipPath>
</defs>
</svg>
