<svg width="24" height="24" viewBox="0 0 24 24" fill="none" xmlns="http://www.w3.org/2000/svg">
<g clip-path="url(#clip0_7_52)">
<path d="M23.25 8.25C23.25 7.71957 23.0393 7.21086 22.6642 6.83579C22.2891 6.46071 21.7804 6.25 21.25 6.25C21.1174 6.25 20.9902 6.30268 20.8964 6.39645C20.8027 6.49021 20.75 6.61739 20.75 6.75V8.25H17.75V6.25C17.75 6.11739 17.6973 5.99021 17.6036 5.89645C17.5098 5.80268 17.3826 5.75 17.25 5.75H15.75L14.25 3.75H7.75L6.25 5.25H4.25C4.11739 5.25 3.99021 5.30268 3.89645 5.39645C3.80268 5.49021 3.75 5.61739 3.75 5.75V12.75C3.75 12.8826 3.80268 13.0098 3.89645 13.1036C3.99021 13.1973 4.11739 13.25 4.25 13.25H6.25L8.25 16.75H11M11.75 3.75V0.75M15.25 0.75H8.25M0.75 5.25V13.25M0.75 9.25H3.75" stroke="#D8D7D3" stroke-width="1.5" stroke-linecap="round" stroke-linejoin="round"/>
<path d="M21.985 11.674C22.0113 11.6321 22.0258 11.5839 22.0272 11.5344C22.0285 11.4849 22.0165 11.436 21.9925 11.3927C21.9685 11.3494 21.9334 11.3134 21.8907 11.2883C21.8481 11.2632 21.7995 11.25 21.75 11.25H16.25C16.1059 11.2496 15.9656 11.2964 15.8506 11.3833C15.7355 11.4701 15.6521 11.5923 15.613 11.731L14.025 17.288C13.993 17.4003 13.9875 17.5184 14.0088 17.6332C14.0302 17.7479 14.0779 17.8562 14.1481 17.9494C14.2184 18.0426 14.3093 18.1183 14.4138 18.1704C14.5182 18.2226 14.6333 18.2498 14.75 18.25H16.75L15.25 23.25L23.022 15.935C23.0781 15.8798 23.1166 15.8094 23.1329 15.7324C23.1491 15.6554 23.1422 15.5754 23.1132 15.5023C23.0842 15.4292 23.0343 15.3663 22.9697 15.3214C22.9051 15.2765 22.8287 15.2517 22.75 15.25H19.75L21.985 11.674Z" stroke="#D8D7D3" stroke-width="1.5" stroke-linecap="round" stroke-linejoin="round"/>
</g>
<defs>
<clipPath id="clip0_7_52">
<rect width="24" height="24" fill="white"/>
</clipPath>
</defs>
</svg>
