<svg width="24" height="24" viewBox="0 0 24 24" fill="none" xmlns="http://www.w3.org/2000/svg">
<path d="M22.9649 11.986H3.74091C3.38547 11.986 3.03351 11.916 2.70514 11.7799C2.37677 11.6439 2.07842 11.4445 1.82713 11.1931C1.57584 10.9417 1.37654 10.6433 1.24061 10.3149C1.10468 9.98644 1.03478 9.63445 1.03491 9.27901C1.03491 8.70482 1.26301 8.15414 1.66903 7.74812C2.07504 7.34211 2.62572 7.11401 3.19991 7.11401M22.9649 8.11601H9.53191C9.3204 8.11601 9.11096 8.07433 8.91556 7.99336C8.72016 7.91239 8.54263 7.79371 8.39312 7.6441C8.2436 7.49449 8.12503 7.31689 8.04418 7.12144C7.96333 6.92599 7.92178 6.71652 7.92191 6.50501C7.92244 6.16375 8.05817 5.8366 8.29939 5.59519C8.54061 5.35379 8.86765 5.2178 9.20891 5.21701M22.9649 15.83H12.2319C11.3847 15.83 10.5722 16.1665 9.97306 16.7655C9.37391 17.3644 9.03718 18.1768 9.03691 19.024C9.03665 19.3596 9.10264 19.692 9.23111 20.0021C9.35958 20.3122 9.548 20.5938 9.78555 20.8309C10.0231 21.068 10.3051 21.2559 10.6155 21.3837C10.9258 21.5116 11.2583 21.5769 11.5939 21.576M2.02891 16.205C1.92946 16.205 1.83407 16.1655 1.76375 16.0952C1.69342 16.0248 1.65391 15.9295 1.65391 15.83C1.65391 15.7306 1.69342 15.6352 1.76375 15.5648C1.83407 15.4945 1.92946 15.455 2.02891 15.455C2.12837 15.455 2.22375 15.4945 2.29408 15.5648C2.3644 15.6352 2.40391 15.7306 2.40391 15.83C2.40391 15.9295 2.3644 16.0248 2.29408 16.0952C2.22375 16.1655 2.12837 16.205 2.02891 16.205Z" stroke="#D8D7D3" stroke-width="1.5" stroke-linecap="round" stroke-linejoin="round"/>
<path d="M19.328 2.42401V4.86201M4.521 18.823V21.261M20.548 3.64301H18.109M5.74 20.042H3.302M16.376 19.573C16.2765 19.573 16.1812 19.5335 16.1108 19.4632C16.0405 19.3929 16.001 19.2975 16.001 19.198C16.001 19.0986 16.0405 19.0032 16.1108 18.9328C16.1812 18.8625 16.2765 18.823 16.376 18.823C16.4755 18.823 16.5708 18.8625 16.6412 18.9328C16.7115 19.0032 16.751 19.0986 16.751 19.198C16.751 19.2975 16.7115 19.3929 16.6412 19.4632C16.5708 19.5335 16.4755 19.573 16.376 19.573ZM5.365 3.52501C5.31576 3.52501 5.26699 3.51531 5.2215 3.49647C5.176 3.47762 5.13466 3.45 5.09984 3.41518C5.06501 3.38035 5.03739 3.33901 5.01855 3.29352C4.9997 3.24802 4.99 3.19926 4.99 3.15001C4.99 3.10077 4.9997 3.052 5.01855 3.00651C5.03739 2.96101 5.06501 2.91967 5.09984 2.88485C5.13466 2.85002 5.176 2.8224 5.2215 2.80356C5.26699 2.78471 5.31576 2.77501 5.365 2.77501C5.46446 2.77501 5.55984 2.81452 5.63017 2.88485C5.70049 2.95517 5.74 3.05056 5.74 3.15001C5.74 3.24947 5.70049 3.34485 5.63017 3.41518C5.55984 3.4855 5.46446 3.52501 5.365 3.52501Z" stroke="#D8D7D3" stroke-width="1.5" stroke-linecap="round" stroke-linejoin="round"/>
</svg>
