<svg width="24" height="24" viewBox="0 0 24 24" fill="none" xmlns="http://www.w3.org/2000/svg">
<g clip-path="url(#clip0_7_3)">
<path d="M8.94499 13.5H3.48099C3.12642 13.4957 2.78138 13.6148 2.50486 13.8368C2.22834 14.0587 2.03751 14.3699 1.96499 14.717L0.777993 20.717C0.738004 20.9373 0.7474 21.1637 0.805503 21.3799C0.863606 21.5961 0.968969 21.7967 1.11399 21.9673C1.25901 22.1379 1.44008 22.2741 1.64414 22.3662C1.84819 22.4583 2.07015 22.504 2.29399 22.5H10.132C10.3558 22.5041 10.5777 22.4584 10.7818 22.3663C10.9858 22.2741 11.1668 22.1379 11.3118 21.9673C11.4567 21.7967 11.562 21.596 11.6199 21.3798C11.6779 21.1636 11.6872 20.9372 11.647 20.717L10.46 14.717C10.3875 14.3701 10.1968 14.059 9.92051 13.8371C9.6442 13.6151 9.29939 13.496 8.94499 13.5ZM20.519 13.5H15.055C14.7006 13.496 14.3558 13.6151 14.0795 13.8371C13.8032 14.059 13.6125 14.3701 13.54 14.717L12.353 20.717C12.3128 20.9372 12.3221 21.1636 12.3801 21.3798C12.438 21.596 12.5433 21.7967 12.6882 21.9673C12.8332 22.1379 13.0142 22.2741 13.2182 22.3663C13.4222 22.4584 13.6442 22.5041 13.868 22.5H21.706C21.9298 22.5039 22.1516 22.458 22.3556 22.3659C22.5596 22.2737 22.7406 22.1374 22.8856 21.9669C23.0305 21.7964 23.1359 21.5959 23.1941 21.3797C23.2523 21.1636 23.2618 20.9372 23.222 20.717L22.035 14.717C21.9625 14.3699 21.7716 14.0587 21.4951 13.8368C21.2186 13.6148 20.8736 13.4957 20.519 13.5Z" stroke="#D8D7D3" stroke-width="1.5" stroke-linecap="round" stroke-linejoin="round"/>
<path d="M20.25 3H23.25M21.75 1.5V4.5M0.75 6.75H3.75M2.25 5.25V8.25M14.945 4.5H9.481C9.12643 4.49575 8.78139 4.61479 8.50487 4.83677C8.22835 5.05876 8.03752 5.3699 7.965 5.717L6.778 11.717C6.73801 11.9373 6.74741 12.1637 6.80551 12.3799C6.86361 12.5961 6.96898 12.7967 7.114 12.9673C7.25902 13.1379 7.44009 13.2741 7.64414 13.3662C7.8482 13.4584 8.07015 13.504 8.294 13.5H16.132C16.3558 13.5041 16.5777 13.4584 16.7818 13.3663C16.9858 13.2742 17.1668 13.1379 17.3118 12.9673C17.4567 12.7967 17.562 12.5961 17.6199 12.3798C17.6779 12.1636 17.6872 11.9372 17.647 11.717L16.46 5.717C16.3875 5.37007 16.1968 5.05906 15.9205 4.8371C15.6442 4.61513 15.2994 4.49598 14.945 4.5Z" stroke="#D8D7D3" stroke-width="1.5" stroke-linecap="round" stroke-linejoin="round"/>
</g>
<defs>
<clipPath id="clip0_7_3">
<rect width="24" height="24" fill="white"/>
</clipPath>
</defs>
</svg>
