<svg width="24" height="24" viewBox="0 0 24 24" fill="none" xmlns="http://www.w3.org/2000/svg">
<g clip-path="url(#clip0_7_56)">
<path d="M18.75 15H21M18.75 12H21M7.5 15H9.75M7.5 12H9.75M15.75 18V20.25M12.75 18V20.25M15.75 6.75V9M12.75 6.75V9M18.75 0.75V2.25H14.25V0.75H3.75C2.95435 0.75 2.19129 1.06607 1.62868 1.62868C1.06607 2.19129 0.75 2.95435 0.75 3.75V15H2.25V18H0.75V20.25C0.75 21.0456 1.06607 21.8087 1.62868 22.3713C2.19129 22.9339 2.95435 23.25 3.75 23.25H20.25C21.0456 23.25 21.8087 22.9339 22.3713 22.3713C22.9339 21.8087 23.25 21.0456 23.25 20.25V3.75C23.25 2.95435 22.9339 2.19129 22.3713 1.62868C21.8087 1.06607 21.0456 0.75 20.25 0.75H18.75Z" stroke="#D8D7D3" stroke-width="1.5" stroke-linecap="round" stroke-linejoin="round"/>
<path d="M3.75 3.75V6.75M6.75 3.75V6.75M9.75 9H18.75V18H9.75V9Z" stroke="#D8D7D3" stroke-width="1.5" stroke-linecap="round" stroke-linejoin="round"/>
</g>
<defs>
<clipPath id="clip0_7_56">
<rect width="24" height="24" fill="white"/>
</clipPath>
</defs>
</svg>
