<svg width="24" height="24" viewBox="0 0 24 24" fill="none" xmlns="http://www.w3.org/2000/svg">
<g clip-path="url(#clip0_7_46)">
<path d="M18.75 16.199C18.6505 16.199 18.5552 16.1595 18.4848 16.0891C18.4145 16.0188 18.375 15.9234 18.375 15.824C18.375 15.7245 18.4145 15.6291 18.4848 15.5588C18.5552 15.4885 18.6505 15.449 18.75 15.449M18.75 16.199C18.8495 16.199 18.9448 16.1595 19.0152 16.0891C19.0855 16.0188 19.125 15.9234 19.125 15.824C19.125 15.7245 19.0855 15.6291 19.0152 15.5588C18.9448 15.4885 18.8495 15.449 18.75 15.449" stroke="#D8D7D3" stroke-width="1.5"/>
<path d="M18.75 11.324C19.9435 11.324 21.0881 11.7981 21.932 12.642C22.7759 13.4859 23.25 14.6305 23.25 15.824C23.25 17.744 20.562 21.401 19.341 22.962C19.2709 23.0518 19.1812 23.1244 19.0788 23.1743C18.9764 23.2243 18.8639 23.2502 18.75 23.2502C18.6361 23.2502 18.5236 23.2243 18.4212 23.1743C18.3188 23.1244 18.2291 23.0518 18.159 22.962C16.938 21.4 14.25 17.745 14.25 15.824C14.25 14.6305 14.7241 13.4859 15.568 12.642C16.4119 11.7981 17.5565 11.324 18.75 11.324Z" stroke="#D8D7D3" stroke-width="1.5" stroke-linecap="round" stroke-linejoin="round"/>
<path d="M14.2499 23.023C12.0714 23.4679 9.80981 23.2574 7.75084 22.4179C5.69186 21.5784 3.92779 20.1477 2.68139 18.3063C1.43498 16.465 0.76213 14.2956 0.747793 12.0721C0.733455 9.8486 1.37828 7.67072 2.60083 5.81345C3.82339 3.95617 5.56886 2.5028 7.61684 1.63684C9.66482 0.770883 11.9235 0.531173 14.1076 0.94798C16.2917 1.36479 18.3033 2.41942 19.8885 3.97871C21.4737 5.538 22.5612 7.53202 23.0139 9.70899" stroke="#D8D7D3" stroke-width="1.5" stroke-linecap="round" stroke-linejoin="round"/>
<path d="M9.29198 22.912C7.77098 20.681 6.75398 16.627 6.75398 11.996C6.75398 7.36499 7.77098 3.31199 9.29198 1.07999M0.781982 11.246H12.752M3.00498 5.24899H20.998M2.05498 17.244H11.252M14.712 1.07999C16.0078 3.26734 16.7965 5.71747 17.02 8.24999" stroke="#D8D7D3" stroke-width="1.5" stroke-linecap="round" stroke-linejoin="round"/>
</g>
<defs>
<clipPath id="clip0_7_46">
<rect width="24" height="24" fill="white"/>
</clipPath>
</defs>
</svg>
