<svg width="256" height="256" viewBox="0 0 256 256" fill="none" xmlns="http://www.w3.org/2000/svg">
<rect width="256" height="256" fill="#4B514D"/>
<path d="M74.9599 99.9747C72.5845 98.7091 69.8391 97.8231 66.714 97.2293C63.5986 96.6354 60.2496 96.4115 56.6864 96.4115H33.0681V97.1514C34.2559 97.5213 35.1515 97.8913 35.8136 98.417C36.4853 98.933 37.0013 99.9065 37.3031 101.464C37.673 102.954 37.8191 105.251 37.8969 108.152C37.9748 111.054 37.9748 115.055 37.9748 120.04V135.402C37.9748 140.455 37.8969 144.388 37.8288 147.289C37.7509 150.19 37.6049 152.488 37.2349 153.977C36.865 155.467 36.4172 156.499 35.7454 157.025C35.0737 157.541 34.1877 157.92 33 158.29H33.0779V159.108H50.2318V158.28C48.9662 157.911 48.0024 157.541 47.3306 157.015C46.6589 156.499 46.1429 155.525 45.8411 153.968C45.4711 152.478 45.2472 150.258 45.1693 147.357C45.0915 144.456 45.0233 140.455 45.0233 135.47V130.271H57.1245C60.5417 130.271 63.8128 129.902 66.9281 129.23C70.0435 128.558 72.7208 127.448 75.0281 125.959C77.4035 124.469 79.1851 122.619 80.5286 120.312C81.8624 118.083 82.5341 115.483 82.5341 112.436C82.5341 109.389 81.8624 106.936 80.5286 104.862C79.117 102.944 77.2575 101.24 74.9599 99.9747ZM73.7722 121.217C72.6623 123.301 71.2507 125.005 69.4691 126.192C67.6875 127.38 65.682 128.198 63.4526 128.646C61.2232 129.093 58.9256 129.317 56.5501 129.317H44.7312L44.8091 97.3072H56.4722C58.7017 97.3072 60.9992 97.4532 63.2287 97.8231C65.4581 98.1931 67.5317 98.8648 69.2452 99.9065C71.0268 101.016 72.4384 102.584 73.6262 104.657C74.8139 106.741 75.4077 109.632 75.4077 113.195C75.4759 116.389 74.882 119.066 73.7722 121.217Z" fill="#D8D7D3"/>
<path d="M222.822 148.097C222.228 150.327 221.556 152.186 220.816 153.52C220.077 154.854 219.113 155.895 218.071 156.567C216.961 157.239 215.696 157.677 214.284 157.833C212.872 157.979 211.237 158.057 209.455 158.057H185.389V124.635H194.978C196.838 124.635 198.25 124.781 199.282 125.229C200.314 125.676 201.063 126.124 201.511 126.718C202.027 127.312 202.329 127.984 202.553 128.724C202.699 129.463 202.923 130.213 203.069 130.953H204.11V117.284H202.923C202.777 118.024 202.553 118.774 202.407 119.514C202.261 120.254 201.891 120.925 201.365 121.519C200.849 122.113 200.099 122.629 199.136 123.009C198.094 123.457 196.682 123.603 194.832 123.603H185.243V97.2293H207.674C209.455 97.2293 210.945 97.3753 212.278 97.6771C213.612 97.901 214.8 98.417 215.773 99.0888C216.815 99.7605 217.701 100.646 218.519 101.834C219.337 103.022 220.077 104.511 220.748 106.361H221.858L220.593 98.417C220.447 97.3753 220.145 96.8593 219.921 96.6354C219.697 96.4894 219.249 96.4115 218.733 96.4115H173.278V97.1514C174.466 97.5213 175.362 97.8913 176.024 98.4852C176.695 99.079 177.211 100.043 177.513 101.601C177.883 103.09 178.029 105.31 178.107 108.211C178.185 111.112 178.185 115.113 178.185 120.098V135.47C178.185 140.523 178.107 144.456 178.039 147.357C177.961 150.258 177.815 152.556 177.445 154.046C177.075 155.535 176.627 156.567 175.955 157.093C175.284 157.609 174.398 157.988 173.21 158.358L173.58 158.28V159.098H221.109C221.702 159.098 222.15 159.02 222.374 158.874C222.598 158.728 222.822 158.134 222.89 157.171L224 148.107L222.822 148.097Z" fill="#D8D7D3"/>
<path d="M164.819 117.654H129.391L123.891 123.895H136.81C143.936 125.161 153.302 129.395 153.146 142.314C153.146 142.314 154.041 158.874 144.608 158.874C144.608 158.874 138.815 159.614 134.95 152.858C131.085 146.102 114.379 114.461 114.379 114.461C114.379 114.461 111.556 107.179 115.869 100.793C120.172 94.3283 128.719 96.2656 130.949 97.5215C133.178 98.7871 137.705 104.054 131.845 112.154L132.954 112.67L142.388 101.533C142.388 101.533 136.673 95 124.864 95C113.055 95 106.892 102.876 106.892 111.56C106.892 111.56 106.669 115.347 109.716 120.322C110.456 121.51 111.205 122.921 112.013 124.411C110.826 124.109 109.336 123.895 107.71 123.895C103.475 123.895 88.619 126.942 89.2129 143.648C89.8067 160.432 105.325 160.88 108.08 160.88C110.904 160.88 115.284 160.208 117.582 158.359L116.316 157.619C116.316 157.619 113.863 158.884 109.93 158.884C104.507 158.884 95.8914 151.164 94.9276 141.584C93.9638 132.005 98.7147 125.17 106.883 125.17C109.852 125.17 112.899 127.994 115.577 131.557C116.316 133.046 116.764 134.078 116.764 134.078L127.386 153.316C127.386 153.316 130.725 160.374 140.83 160.374C150.936 160.374 160.662 154.065 160.662 145.293C160.662 137.048 156.651 129.843 141.278 123.905H159.25L164.819 117.654Z" fill="#D8D7D3"/>
</svg>
